<mxfile host="65bd71144e">
    <diagram id="N9zXwa11JpXZI40DQxlI" name="Page-1">
        <mxGraphModel dx="3273" dy="943" grid="1" gridSize="10" guides="1" tooltips="1" connect="1" arrows="1" fold="1" page="1" pageScale="1" pageWidth="827" pageHeight="1169" math="0" shadow="0">
            <root>
                <mxCell id="0"/>
                <mxCell id="1" parent="0"/>
                <mxCell id="66" value="" style="rounded=1;whiteSpace=wrap;html=1;sketch=1;fontFamily=Raleway;fontSource=https%3A%2F%2Ffonts.googleapis.com%2Fcss%3Ffamily%3DRaleway;" vertex="1" parent="1">
                    <mxGeometry x="-98" y="600" width="438" height="160" as="geometry"/>
                </mxCell>
                <mxCell id="9" value="" style="rounded=1;whiteSpace=wrap;html=1;sketch=1;fontFamily=Raleway;fontSource=https%3A%2F%2Ffonts.googleapis.com%2Fcss%3Ffamily%3DRaleway;" vertex="1" parent="1">
                    <mxGeometry x="-100" y="330" width="780" height="240" as="geometry"/>
                </mxCell>
                <mxCell id="40" value="" style="rounded=1;whiteSpace=wrap;html=1;sketch=1;fontFamily=Raleway;fontSource=https%3A%2F%2Ffonts.googleapis.com%2Fcss%3Ffamily%3DRaleway;" vertex="1" parent="1">
                    <mxGeometry x="-80" y="650" width="240" height="90" as="geometry"/>
                </mxCell>
                <mxCell id="6" value="Workspace Builder" style="rounded=1;whiteSpace=wrap;html=1;sketch=1;fontFamily=Raleway;fontSource=https%3A%2F%2Ffonts.googleapis.com%2Fcss%3Ffamily%3DRaleway;" vertex="1" parent="1">
                    <mxGeometry x="-70" y="370" width="270" height="60" as="geometry"/>
                </mxCell>
                <mxCell id="7" value="" style="rounded=1;whiteSpace=wrap;html=1;sketch=1;fontFamily=Raleway;fontSource=https%3A%2F%2Ffonts.googleapis.com%2Fcss%3Ffamily%3DRaleway;" vertex="1" parent="1">
                    <mxGeometry x="470" y="21.25" width="210" height="160" as="geometry"/>
                </mxCell>
                <mxCell id="4" value="" style="dashed=0;outlineConnect=0;html=1;align=center;labelPosition=center;verticalLabelPosition=bottom;verticalAlign=top;shape=mxgraph.weblogos.github;fontFamily=Raleway;fontSource=https%3A%2F%2Ffonts.googleapis.com%2Fcss%3Ffamily%3DRaleway;" vertex="1" parent="1">
                    <mxGeometry x="430" y="1.25" width="50" height="50" as="geometry"/>
                </mxCell>
                <mxCell id="8" value="Cheat Sheet" style="rounded=1;whiteSpace=wrap;html=1;sketch=1;fontFamily=Raleway;fontSource=https%3A%2F%2Ffonts.googleapis.com%2Fcss%3Ffamily%3DRaleway;" vertex="1" parent="1">
                    <mxGeometry x="395" y="370" width="245" height="60" as="geometry"/>
                </mxCell>
                <mxCell id="11" value="&lt;span style=&quot;color: rgb(240, 240, 240); font-family: Raleway; font-size: 9px; font-style: normal; font-variant-ligatures: normal; font-variant-caps: normal; font-weight: 400; letter-spacing: normal; orphans: 2; text-align: center; text-indent: 0px; text-transform: none; widows: 2; word-spacing: 0px; -webkit-text-stroke-width: 0px; text-decoration-thickness: initial; text-decoration-style: initial; text-decoration-color: initial; float: none; display: inline !important;&quot;&gt;Open Source Troubleshooting Commands/Scripts&lt;/span&gt;" style="text;whiteSpace=wrap;html=1;fontSize=9;fontFamily=Raleway;" vertex="1" parent="1">
                    <mxGeometry x="480" y="22.25" width="200" height="40" as="geometry"/>
                </mxCell>
                <mxCell id="12" value="RunWhen Maintained Codecollections" style="rounded=1;whiteSpace=wrap;html=1;sketch=1;fontFamily=Raleway;fontSource=https%3A%2F%2Ffonts.googleapis.com%2Fcss%3Ffamily%3DRaleway;" vertex="1" parent="1">
                    <mxGeometry x="515" y="61.25" width="120" height="50" as="geometry"/>
                </mxCell>
                <mxCell id="13" value="Community Maintained Codecollections" style="rounded=1;whiteSpace=wrap;html=1;sketch=1;fontFamily=Raleway;fontSource=https%3A%2F%2Ffonts.googleapis.com%2Fcss%3Ffamily%3DRaleway;" vertex="1" parent="1">
                    <mxGeometry x="515" y="121.25" width="120" height="50" as="geometry"/>
                </mxCell>
                <mxCell id="20" value="" style="rounded=1;whiteSpace=wrap;html=1;sketch=1;fontFamily=Raleway;fontSource=https%3A%2F%2Ffonts.googleapis.com%2Fcss%3Ffamily%3DRaleway;" vertex="1" parent="1">
                    <mxGeometry x="-98" y="21.25" width="210" height="160" as="geometry"/>
                </mxCell>
                <mxCell id="30" value="" style="verticalLabelPosition=bottom;html=1;verticalAlign=top;align=center;strokeColor=#006EAF;fillColor=#FFFFFF;shape=mxgraph.azure.cloud;rounded=1;fontFamily=Raleway;fontSource=https%3A%2F%2Ffonts.googleapis.com%2Fcss%3Ffamily%3DRaleway;fontSize=9;fontColor=#ffffff;shadow=0;" vertex="1" parent="1">
                    <mxGeometry x="-118" y="10" width="50" height="32.5" as="geometry"/>
                </mxCell>
                <mxCell id="28" value="User Clusters" style="rounded=1;whiteSpace=wrap;html=1;sketch=1;fontFamily=Raleway;fontSource=https%3A%2F%2Ffonts.googleapis.com%2Fcss%3Ffamily%3DRaleway;" vertex="1" parent="1">
                    <mxGeometry x="-53" y="51.25" width="120" height="50" as="geometry"/>
                </mxCell>
                <mxCell id="25" value="" style="editableCssRules=.*;shape=image;verticalLabelPosition=bottom;labelBackgroundColor=#ffffff;verticalAlign=top;aspect=fixed;imageAspect=0;image=data:image/svg+xml,PHN2ZyB4bWxucz0iaHR0cDovL3d3dy53My5vcmcvMjAwMC9zdmciIHhtbG5zOnY9Imh0dHBzOi8vdmVjdGEuaW8vbmFubyIgd2lkdGg9IjcwMi44NDYzMTM0NzY1NjI1IiBoZWlnaHQ9IjY4MS45NjcxMDIwNTA3ODEyIiB2aWV3Qm94PSIxMC4wMDEwMjYxNTM1NjQ0NTMgMTAuMDAwOTMzNjQ3MTU1NzYyIDcwMi44NDYzMTM0NzY1NjI1IDY4MS45NjcxMDIwNTA3ODEyIj4mI3hhOwk8c3R5bGUgdHlwZT0idGV4dC9jc3MiPiYjeGE7CS5zdDB7ZmlsbDojMzI2Y2U1O30mI3hhOwkuc3Qxe2ZpbGw6I2ZmZjt9JiN4YTsJPC9zdHlsZT4mI3hhOwk8cGF0aCBjbGFzcz0ic3QwIiBkPSJNMzU4Ljk4NyAxMC4wNmMtNi4yMTMuMzEzLTEyLjMwMSAxLjg1NC0xNy45MDYgNC41MzFMOTYuNzM3IDEzMS4zNDJjLTEyLjgxMSA2LjExOC0yMi4xMTYgMTcuNjg5LTI1LjI4MSAzMS40MzhsLTYwLjI4MSAyNjIuMjVjLTIuODEyIDEyLjIwNy0uNTI0IDI1LjAyNCA2LjM0NCAzNS41MzFhNDYuMzUgNDYuMzUgMCAwIDAgMi42NTYgMy42ODhsMTY5LjEyNSAyMTAuMjgxYzguODY4IDExLjAyMiAyMi4zMTMgMTcuNDQgMzYuNTMxIDE3LjQzOGwyNzEuMjE5LS4wNjJjMTQuMjEyLjAxIDI3LjY1Ny02LjM5NiAzNi41MzEtMTcuNDA2bDE2OS4wNjMtMjEwLjMxM2M4Ljg3My0xMS4wMjggMTIuMTk3LTI1LjQ2NCA5LjAzMS0zOS4yMTlsLTYwLjM3NS0yNjIuMjVjLTMuMTY1LTEzLjc0OC0xMi40Ny0yNS4zMTktMjUuMjgxLTMxLjQzN0wzODEuNjQzIDE0LjU5MmMtNy4wNS0zLjM2OC0xNC44NDEtNC45MjYtMjIuNjU2LTQuNTMxeiIvPiYjeGE7CTxwYXRoIGNsYXNzPSJzdDEgc3QyIiBkPSJNMzYxLjQwOCA5OS4zMDhjLTguMDc3LjAwMS0xNC42MjYgNy4yNzYtMTQuNjI1IDE2LjI1IDAgLjEzOC4wMjguMjY5LjAzMS40MDYtLjAxMiAxLjIxOS0uMDcxIDIuNjg4LS4wMzEgMy43NS4xOTMgNS4xNzYgMS4zMjEgOS4xMzcgMiAxMy45MDYgMS4yMyAxMC4yMDcgMi4yNjEgMTguNjY3IDEuNjI1IDI2LjUzMS0uNjE5IDIuOTY1LTIuODAzIDUuNjc3LTQuNzUgNy41NjNsLS4zNDQgNi4xODhjLTguNzc3LjcyNy0xNy42MTIgMi4wNTktMjYuNDM3IDQuMDYzLTM3Ljk3NSA4LjYyMi03MC42NyAyOC4xODMtOTUuNTYyIDU0LjU5NC0xLjYxNS0xLjEwMi00LjQ0MS0zLjEyOS01LjI4MS0zLjc1LTIuNjExLjM1My01LjI1IDEuMTU4LTguNjg3LS44NDQtNi41NDUtNC40MDYtMTIuNTA2LTEwLjQ4Ny0xOS43MTktMTcuODEyLTMuMzA1LTMuNTA0LTUuNjk4LTYuODQxLTkuNjI1LTEwLjIxOS0uODkyLS43NjctMi4yNTMtMS44MDUtMy4yNS0yLjU5NC0zLjA3LTIuNDQ4LTYuNjkxLTMuNzI0LTEwLjE4Ny0zLjg0NC00LjQ5Ni0uMTU0LTguODI0IDEuNjA0LTExLjY1NiA1LjE1Ni01LjAzNSA2LjMxNS0zLjQyMyAxNS45NjggMy41OTQgMjEuNTYzLjA3MS4wNTcuMTQ3LjEwMS4yMTkuMTU2Ljk2NC43ODIgMi4xNDUgMS43ODMgMy4wMzEgMi40MzggNC4xNjcgMy4wNzcgNy45NzMgNC42NTEgMTIuMTI1IDcuMDk0IDguNzQ3IDUuNDAyIDE1Ljk5OCA5Ljg4MSAyMS43NSAxNS4yODEgMi4yNDYgMi4zOTQgMi42MzkgNi42MTMgMi45MzggOC40MzhsNC42ODggNC4xODhjLTI1LjA5MyAzNy43NjQtMzYuNzA3IDg0LjQwOS0yOS44NDQgMTMxLjkzOGwtNi4xMjUgMS43ODFjLTEuNjE0IDIuMDg1LTMuODk1IDUuMzY1LTYuMjgxIDYuMzQ0LTcuNTI1IDIuMzctMTUuOTk0IDMuMjQxLTI2LjIxOSA0LjMxMy00LjguMzk5LTguOTQyLjE2MS0xNC4wMzEgMS4xMjUtMS4xMi4yMTItMi42ODEuNjE5LTMuOTA2LjkwNi0uMDQzLjAwOS0uMDgyLjAyMi0uMTI1LjAzMS0uMDY3LjAxNS0uMTU1LjA0OC0uMjE5LjA2My04LjYyIDIuMDgzLTE0LjE1OCAxMC4wMDYtMTIuMzc1IDE3LjgxM3MxMC4yMDMgMTIuNTU3IDE4Ljg3NSAxMC42ODhjLjA2My0uMDE0LjE1NC0uMDE3LjIxOS0uMDMxLjA5OC0uMDIyLjE4NC0uMDcuMjgxLS4wOTQgMS4yMDktLjI2NSAyLjcyNC0uNTYxIDMuNzgxLS44NDQgNS4wMDMtMS4zNCA4LjYyNy0zLjMwOCAxMy4xMjUtNS4wMzEgOS42NzctMy40NzEgMTcuNjkyLTYuMzcgMjUuNS03LjUgMy4yNjEtLjI1NSA2LjY5NyAyLjAxMiA4LjQwNiAyLjk2OWw2LjM3NS0xLjA5NGMxNC42NyA0NS40ODMgNDUuNDE0IDgyLjI0NSA4NC4zNDQgMTA1LjMxMmwtMi42NTYgNi4zNzVjLjk1NyAyLjQ3NSAyLjAxMyA1LjgyNSAxLjMgOC4yNjktMi44MzkgNy4zNjEtNy43MDEgMTUuMTMxLTEzLjIzOCAyMy43OTMtMi42ODEgNC4wMDItNS40MjUgNy4xMDgtNy44NDQgMTEuNjg4LS41NzkgMS4wOTYtMS4zMTYgMi43NzktMS44NzUgMy45MzgtMy43NTkgOC4wNDItMS4wMDIgMTcuMzA1IDYuMjE5IDIwLjc4MSA3LjI2NiAzLjQ5OCAxNi4yODQtLjE5MSAyMC4xODctOC4yNS4wMDYtLjAxMS4wMjYtLjAyLjAzMS0uMDMxcy0uMDA0LS4wMjMgMC0uMDMxYy41NTYtMS4xNDMgMS4zNDQtMi42NDQgMS44MTMtMy43MTkgMi4wNzItNC43NDcgMi43NjItOC44MTUgNC4yMTktMTMuNDA2IDMuODctOS43MiA1Ljk5Ni0xOS45MTkgMTEuMzIzLTI2LjI3NCAxLjQ1OS0xLjc0IDMuODM3LTIuNDA5IDYuMzAyLTMuMDdsMy4zMTMtNmMzMy45MzggMTMuMDI3IDcxLjkyNyAxNi41MjIgMTA5Ljg3NSA3LjkwNmExODkuNzcgMTg5Ljc3IDAgMCAwIDI1LjA5NC03LjU2MmwzLjEyNSA1LjYyNWMyLjUwNi44MTUgNS4yNCAxLjIzNiA3LjQ2OSA0LjUzMSAzLjk4NSA2LjgwOSA2LjcxMSAxNC44NjQgMTAuMDMxIDI0LjU5NCAxLjQ1NyA0LjU5MSAyLjE3OCA4LjY1OSA0LjI1IDEzLjQwNi40NzIgMS4wODIgMS4yNTYgMi42MDUgMS44MTMgMy43NSAzLjg5NSA4LjA4NSAxMi45NDIgMTEuNzg3IDIwLjIxOSA4LjI4MSA3LjIxOS0zLjQ3OCA5Ljk4LTEyLjc0IDYuMjE5LTIwLjc4MWwtMS45MDYtMy45MzdjLTIuNDE5LTQuNTgtNS4xNjMtNy42NTQtNy44NDQtMTEuNjU2LTUuNTM3LTguNjYyLTEwLjEzLTE1Ljg1OC0xMi45NjktMjMuMjE5LTEuMTg3LTMuNzk3LjItNi4xNTggMS4xMjUtOC42MjUtLjU1NC0uNjM1LTEuNzM5LTQuMjItMi40MzctNS45MDYgNDAuNDU3LTIzLjg4OCA3MC4yOTktNjIuMDIxIDg0LjMxMy0xMDYuMDYyIDEuODkyLjI5NyA1LjE4Mi44NzkgNi4yNSAxLjA5NCAyLjItMS40NTEgNC4yMjItMy4zNDQgOC4xODgtMy4wMzEgNy44MDggMS4xMjkgMTUuODIzIDQuMDMgMjUuNSA3LjUgNC40OTggMS43MjMgOC4xMjIgMy43MjMgMTMuMTI1IDUuMDYzIDEuMDU3LjI4MyAyLjU3Mi41NDcgMy43ODEuODEzLjA5Ny4wMjQuMTgzLjA3MS4yODEuMDk0LjA2NS4wMTUuMTU2LjAxNy4yMTkuMDMxIDguNjcyIDEuODY3IDE3LjA5NC0yLjg3OSAxOC44NzUtMTAuNjg3cy0zLjc1NC0xNS43MzItMTIuMzc1LTE3LjgxMmMtMS4yNTQtLjI4NS0zLjAzMi0uNzY5LTQuMjUtMS01LjA4OS0uOTY0LTkuMjMxLS43MjYtMTQuMDMxLTEuMTI1LTEwLjIyNS0xLjA3MS0xOC42OTMtMS45NDMtMjYuMjE5LTQuMzEyLTMuMDY4LTEuMTktNS4yNTEtNC44NDEtNi4zMTMtNi4zNDRsLTUuOTA2LTEuNzE5YzMuMDYyLTIyLjE1NCAyLjIzNy00NS4yMTEtMy4wNjItNjguMjgxLTUuMzQ4LTIzLjI4NS0xNC44LTQ0LjU4MS0yNy40MDYtNjMuMzQ0bDUuMTg4LTQuNjU2Yy4yMzctMi42MjQuMDMzLTUuMzc2IDIuNzUtOC4yODEgNS43NTEtNS40MDEgMTMuMDAzLTkuODc5IDIxLjc1LTE1LjI4MSA0LjE1Mi0yLjQ0MyA3Ljk5LTQuMDE3IDEyLjE1Ni03LjA5NC45NDItLjY5NiAyLjIyOS0xLjc5OCAzLjIxOS0yLjU5NCA3LjAxNS01LjU5NiA4LjYzMS0xNS4yNDggMy41OTQtMjEuNTYycy0xNC43OTctNi45MDktMjEuODEyLTEuMzEyYy0uOTk5Ljc5MS0yLjM1NCAxLjgyMy0zLjI1IDIuNTk0LTMuOTI3IDMuMzc4LTYuMzUxIDYuNzE0LTkuNjU2IDEwLjIxOS03LjIxMiA3LjMyNi0xMy4xNzQgMTMuNDM4LTE5LjcxOSAxNy44NDQtMi44MzYgMS42NTEtNi45OSAxLjA4LTguODc1Ljk2OWwtNS41NjIgMy45NjljLTMxLjcxOS0zMy4yNjEtNzQuOTA1LTU0LjUyNS0xMjEuNDA2LTU4LjY1NmwtLjM0NC02LjUzMWMtMS45MDQtMS44MjItNC4yMDMtMy4zNzctNC43ODEtNy4zMTItLjYzNi03Ljg2NC40MjYtMTYuMzI1IDEuNjU2LTI2LjUzMS42NzktNC43NjkgMS44MDctOC43MyAyLTEzLjkwNi4wNDQtMS4xNzctLjAyNi0yLjg4NC0uMDMxLTQuMTU2LS4wMDEtOC45NzQtNi41NDgtMTYuMjUxLTE0LjYyNS0xNi4yNXptLTE4LjMxMiAxMTMuNDM4bC00LjM0NCA3Ni43MTktLjMxMi4xNTZjLS4yOTEgNi44NjMtNS45NCAxMi4zNDQtMTIuODc1IDEyLjM0NGExMi44MiAxMi44MiAwIDAgMS03LjU5NC0yLjQ2OWwtLjEyNS4wNjMtNjIuOTA2LTQ0LjU5NGMxOS4zMzQtMTkuMDExIDQ0LjA2My0zMy4wNiA3Mi41NjItMzkuNTMxIDUuMjA2LTEuMTgyIDEwLjQxLTIuMDU5IDE1LjU5NC0yLjY4N3ptMzYuNjU2IDBjMzMuMjczIDQuMDkyIDY0LjA0NSAxOS4xNTkgODcuNjI1IDQyLjI1bC02Mi41IDQ0LjMxMy0uMjE5LS4wOTRhMTIuOTEgMTIuOTEgMCAwIDEtMTcuNjg3LTIuMzc1Yy0xLjc3MS0yLjIyMS0yLjcwMS00LjgzMi0yLjgxMi03LjQ2OWwtLjA2Mi0uMDMxek0yMzIuMTI2IDI4My42Mmw1Ny40MzcgNTEuMzc1LS4wNjIuMzEzYTEyLjg4IDEyLjg4IDAgMCAxIDEuNjI1IDE3Ljc1IDEyLjg5IDEyLjg5IDAgMCAxLTYuNjg3IDQuNDA2bC0uMDYyLjI1LTczLjYyNSAyMS4yNWMtMy43NDctMzQuMjY1IDQuMzI5LTY3LjU3NCAyMS4zNzUtOTUuMzQ0em0yNTguMTU2LjAzMWM4LjUzNCAxMy44MzMgMTQuOTk3IDI5LjI4MiAxOC44NDQgNDYuMDMxIDMuODAxIDE2LjU0OCA0Ljc1NSAzMy4wNjcgMy4xODggNDkuMDMxbC03NC0yMS4zMTItLjA2Mi0uMzEyYy02LjYyNy0xLjgxMS0xMC42OTktOC41NTItOS4xNTYtMTUuMzEyLjYzMi0yLjc3IDIuMTAyLTUuMTEzIDQuMDk0LTYuODQ0bC0uMDMxLS4xNTYgNTcuMTI1LTUxLjEyNXptLTE0MC42NTYgNTUuMzEzaDIzLjUzMWwxNC42MjUgMTguMjgxLTUuMjUgMjIuODEzLTIxLjEyNSAxMC4xNTYtMjEuMTg3LTEwLjE4Ny01LjI1LTIyLjgxMnptNzUuNDM4IDYyLjU2M2ExMi44MyAxMi44MyAwIDAgMSAyLjk2OS4yMTlsLjEyNS0uMTU2IDc2LjE1NiAxMi44NzVjLTExLjE0NiAzMS4zMTMtMzIuNDczIDU4LjQ0LTYwLjk2OSA3Ni41OTRsLTI5LjU2Mi03MS40MDYuMDk0LS4xMjVjLTIuNzE2LTYuMzEuMDAyLTEzLjcxIDYuMjUtMTYuNzE5IDEuNi0uNzcgMy4yNzEtMS4xOTcgNC45MzgtMS4yODF6bS0xMjcuOTA2LjMxM2ExMi45IDEyLjkgMCAwIDEgMTIuMzc1IDEwLjAzMSAxMi43NyAxMi43NyAwIDAgMS0uNzE5IDcuOTM4bC4yMTkuMjgxLTI5LjI1IDcwLjY4OGMtMjcuMzQ3LTE3LjU0OS00OS4xMjktNDMuODI0LTYwLjc4MS03Ni4wNjJsNzUuNS0xMi44MTIuMTI1LjE1NmMuODQ1LS4xNTUgMS43MDEtLjIzIDIuNTMxLS4yMTl6bTYzLjc4MSAzMC45NjljMi4wMjQtLjA3NCA0LjA3OS4zNDEgNi4wMzEgMS4yODEgMi41NiAxLjIzMyA0LjUzNyAzLjE3MyA1Ljc4MSA1LjVoLjI4MWwzNy4yMTkgNjcuMjVjLTQuODMgMS42MTktOS43OTYgMy4wMDMtMTQuODc1IDQuMTU2LTI4LjQ2NSA2LjQ2My01Ni44MzkgNC41MDUtODIuNTMxLTQuMjVsMzcuMTI1LTY3LjEyNWguMDYzYTEyLjkxIDEyLjkxIDAgMCAxIDEwLjkwNi02LjgxMnoiIHN0cm9rZT0ibm9uZSIgc3Ryb2tlLXdpZHRoPSIuMjUiLz4mI3hhOzwvc3ZnPg==;fontColor=default;rounded=1;sketch=1;fontFamily=Raleway;fontSource=https%3A%2F%2Ffonts.googleapis.com%2Fcss%3Ffamily%3DRaleway;fontSize=9;" vertex="1" parent="1">
                    <mxGeometry x="-68" y="42.5" width="30.53" height="29" as="geometry"/>
                </mxCell>
                <mxCell id="31" value="User Clusters" style="rounded=1;whiteSpace=wrap;html=1;sketch=1;fontFamily=Raleway;fontSource=https%3A%2F%2Ffonts.googleapis.com%2Fcss%3Ffamily%3DRaleway;" vertex="1" parent="1">
                    <mxGeometry x="-53" y="110" width="120" height="50" as="geometry"/>
                </mxCell>
                <mxCell id="33" value="" style="sketch=0;aspect=fixed;html=1;points=[];align=center;image;fontSize=12;image=img/lib/mscae/OpenShift.svg;rounded=1;fontFamily=Raleway;fontSource=https%3A%2F%2Ffonts.googleapis.com%2Fcss%3Ffamily%3DRaleway;imageBackground=default;" vertex="1" parent="1">
                    <mxGeometry x="-68" y="104" width="26.14" height="24.05" as="geometry"/>
                </mxCell>
                <mxCell id="34" value="" style="shape=image;verticalLabelPosition=bottom;labelBackgroundColor=default;verticalAlign=top;aspect=fixed;imageAspect=0;image=data:image/png,iVBORw0KGgoAAAANSUhEUgAAAggAAAGbCAYAAACh5mgTAAAAAXNSR0IArs4c6QAAIABJREFUeF7s3Xd8lfd9//3XWTqSztGeaCAhgZY1QAMQexkbDBiwHceJHTtxhtMmbdOV+25/j/766N32/vVu2qZNmzRN4sROvPFg7w0CoQloor33Hmef636cI4wXtjBBGHE+5x9AfK/v9f08P5c4b67rOpdUWX87oCAvERABERABERABEfiQgEoCghwPIiACIiACIiACHxdQ7Sk3yxkEOS5EQAREQAREQAQ+IqBSFEUCghwUIiACIiACIiACEhDkGBABERABERABEfhsATmDIEeICIiACIiACIjAJwQkIMhBIQIiIAIiIAIiIAFBjgEREAEREAEREIHpBeQMwvRGMkIEREAEREAEPE5AAoLHtVwKFgEREAEREIHpBSQgTG8kI0RABERABETA4wQkIHhcy6VgERABERABEZheQALC9EYyQgREQAREQAQ8TkACgse1XAoWAREQAREQgekFJCBMbyQjREAEREAERMDjBCQgeFzLpWAREAEREAERmF5AAsL0RjJCBERABERABDxOQAKCx7VcChYBERABERCB6QUkIExvJCNEQAREQAREwOMEJCB4XMulYBEQAREQARGYXkACwvRGMkIEREAEREAEPE5AAoLHtVwKFgEREAEREIHpBSQgTG8kI0RABERABETA4wQkIHhcy6VgERABERABEZheQALC9EYyQgREQAREQAQ8TkACgse1XAoWAREQAREQgekFJCBMbyQjREAEREAERMDjBCQgeFzLpWAREAEREAERmF5AAsL0RjJCBERABERABDxOQAKCx7VcChYBERABERCB6QUkIExvJCNEQAREQAREwOMEJCB4XMulYBEQAREQARGYXkACwvRGMkIEREAEREAEPE5AAoLHtVwKFgEREAEREIHpBSQgTG8kI0RABERABETA4wQkIHhcy6VgERABERABEZheQALC9EYyQgREQAREQAQ8TkACgse1XAoWAREQAREQgekFJCBMbyQjREAEREAERMDjBCQgeFzLpWAREAEREAERmF5AAsL0RjJCBERABERABDxOQAKCx7VcChYBERABERCB6QUkIExvJCNEQAREQAREwOMEJCB4XMulYBEQAREQARGYXkACwvRGMkIEREAEREAEPE5AAoLHtVwKFgEREAEREIHpBSQgTG8kI0RABERABETA4wQkIHhcy6VgERABERABEZheQALC9EYyQgREQAREQAQ8TkACgse1XAoWAREQAREQgekFJCBMbyQjREAEREAERMDjBCQgeFzLpWAREAEREAERmF5AAsL0RjJCBERABERABDxOQAKCx7VcChYBERABERCB6QUkIExvJCNEQAREQAREwOMEJCB4XMulYBEQAREQARGYXkACwvRGMkIEREAEREAEPE5AAoLHtVwKFgEREAEREIHpBSQgTG8kI0RABERABETA4wQkIHhcy6VgERABERABEZheQALC9EYyQgREQAREQAQ8TkACgse1XAoWAREQAREQgekFJCBMbyQjREAEREAERMDjBCQgeFzLpWAREAEREAERmF5AAsL0RjJCBERABERABDxOQAKCx7VcChYBERABERCB6QUkIExvJCNEQAREQAREwOMEJCB4XMulYBEQAREQARGYXkACwvRGMkIEREAEREAEPE5AAoLHtVwKFgEREAEREIHpBSQgTG8kI0RABERABETA4wQkIHhcy6VgERABERABEZheQALC9EYyQgREQAREQAQ8TkACgse1XAoWAREQAREQgekFJCBMbyQjREAEREAERMDjBCQgeFzLpWAREAEREAERmF5AAsL0RjJCBERABERABDxOQAKCx7VcChYBERABERCB6QUkIExvJCNEQAREQAREwOMEJCB4XMulYBEQAREQARGYXkACwvRGMkIEREAEREAEPE5AAoLHtVwKFgEREAEREIHpBSQgTG8kI0RABERABETA4wQkIHhcy6XgL0TAqfCPb4/zZpXtxu6D/DRsydXz7Xxv/NQK//utMQ42Ofi3p/1ZHqtxj/uvt0b4RZWDf//DYIydJp5/10TyAj2vPmVAowKr2cn3fzdGzajCz5/z429/MUKDXsuFP/FHCxw8M8H/fdLCj74VyIYoNQ0dVp779TjJD/jwjbkKf7DPzNMPGfnzpV7u/ZkmnDz/m1F6nSp+9aw/Q10Wvv36JNaPoeUk6fnDTDXf2GVibryet79mQKcCh8nJk78cZRA1v/26H9FG1Y0tlZ53sZ/4a9RJf40m56sfm1GByVYcpX+Ps7MQ9LFo0v4IdeIGUE9ZoDhROg/iKP93lPFeVP4PoMn6c1RRC4EP7aflZ9gLfoIq/o/R5n/ng/2MHMV24I9Rxf8p2vxvfiGHgexUBGaTgASE2dQtWevsFbgeEHbV2MhN8CLSoKKp205Fr4PNS335h/X6Ww4IqFS8sMXId7J12D4SEPw5cHSMl2ud/PYHQWT4wd++NMx7zU4eX2/kf63w4kKZiT/cY+L5rX5kKza+e4sBISxcS27U9TdqIC5SS47RybO7TO6evLDFj2/n6FBuMyAogxdxnPkBil2NOjwHxdSKMlSHOuGbaHK/D2oVzuof4bj6CipjGqqAKJSBYhSLHc3in6COy5k6NpwTOI5sxTnUDZpgtFuOoPL1nfo7CQiz9/tHVv6FCEhA+ELYZaceJ3A9ILxTZ+efv+rP2jgN1nE76/51FHuAlovf87v1gAAE+2v4xfP+xHopHzqD4E9fvZnvHzTzF08G8JVEFY/80zCdDkhL1PObrxr43b4x/qPUxs+/F4Sz2XTLAWFtvi//tNH7I22rrDTx1esBYU6Yll99zY8IjXJbZxAchd/G2XgezeL/Rp24EuxDOI4+hnPUjHbTHlSaPmyHvgbeC9Bt/BXofMDRi333RhRS0O543ZWbYPACtmMvgEoP9nE0i3+GOnG1BASP+4aTgu+EgASEO6Eoc4jAdAI3CQgOs4PNPxphPEDLuT/w429v8RJDfIiG1kEHj6028BdLdB8JCN4mO8/8epz8fAN/nAjbXpkkxkeFVa/mV1/3459fHqZgUsOJH/hzpXTSHRC2LPPluUyduwKLycnf7JlgRPXRSwxLF3nzlyv016tUERmkprZqKiAkRGho63OwbbWBv8rT3UZAsGLfk49iCkH72CFUWrV7P0rDv2K/9EvUC3+COtCK/exfoor5Ktr8HzKVBkDpPIpisaKe+whowFn7Yxxl/4M67fs4a/4bVfQTaJf99dR4OYMw3VEqfy8CHxGQgCAHhAjcDYHrAeHtWjtP5nuTEqLmYpWFA3V2Niz24UcbvW/5DMLOVb7Ym83s61T4+Tf9+eXe8ev3IPgTplb45oujaEO9+HI8/EexjadStbxcaee/nzLwpy+OMSfFm98+4cuFkqmAcLNXaLDm0+9BUKl48y+CsDVOBYRH1hjwaTOzq8nJT5/14193j3/OexD6sL+5GkW/FN2jL36wnJ53sJ34X6gSf4hmjgH7+b9BPf97aHL/4FM6puA4uRNnTyfa7SdwnHwIxRyMbusu0HpJQLgbx7ns474SkIBwX7VTirlnBW5yk6JrrUkJXvx4h4EoH249IKw28Hyymm/+bhxDkBaN1UG3GX7+nD8JvvC9347RboYEPxWtFvjxI9586TcTfGeZnp+eNfP0w0b+bInXjYCQl6Jn3byp+wtsVoVXC83YvdQfCQiJ87zYluK67dH1UrEpW09H7QcB4Rvz1Hz7tXFiIrT0DDqw6j7PTYrD2HctR1FlonvstRstVDpfwX76H1Al/Q2acD32gv+FOuEFNHnfv3mbJ8qx7X8aVeAmNHnPo7S+iKPqIJqlL6Gely0B4Z795pCF3asCEhDu1c7Iuu4vgY9dYlgUCF/+2SgWHw1vvuBPmE7h73aNs7fBzo++4s/quKk37P/v1WFerXPy8z8KRts29SmGnasN/M1qPf+1d4xflNncZ8/9jWp3QEgJUvH/vjXGe3UONGpIT/Xm549688y/DNGtUjNgUvjRM36sj9PeCAi38imGz7oHwXUG4R9WefGTd8Z4sdKOokBwsPZzfYrBfmgNytAI2q3nURldNxUqOC//xfU3+NdQGQewn/oTVBGPoF3x96B2XYZw4rj4RyjjFjSr/wfl6h/gqD39yePGsALd1p/D6DH5FMP99V0l1cywgASEGQaW6UXALfCxgLA6Rs2/7R7n1So7f77dyFPpOt45PcHfnbawLsubr+d5MThg5+/3TWI1aNn3PX+uVXwoIKzRMzbi4LlfjtAwDgF+1wNCsJoD5yb4q+MW927/6DF/vpGu5WfvjvLzK3aMRjX/86w/aaHqzxUQcrO8+UH++/cggI9exXCHhaevX2L4h9V6Jscc7ssbVcPKZwYEVdy30KQ98sGB4T0HpeVXOMp+gSp6O5rkx1DGa3GW/wuKdi7ajS+j0kxiP/okiklBnfUXqAOjUfpO4LjyK1ShX0K7/BvYD+5EUUegSfnyjY9GKi1v4uyrQ7NhP2qva1MBIeoZNFmPfWT/Km8/OVBFQAQ+JiABQQ4JEbgbAje5SbGjzcqjvx5nTqwX7z5nBKuT7/9mlJI+J1bH1H11rjfiH2wx8sQDOkqufDQguJZdWmHmhXcm8Xn/DEKwmvZmC1temnB/NPC1Pwsi1ReKy018e7cJ16cNXvy6HxE+qs8VED7+HITsBXq+lzX1HAT3GYTVU+HhbLmJP9trwhj46WcQPs6tzvw3NMl5OM6+gLOvFhw2UGlA44Mm919Rz1sxtcl4OfZj30Uxj7mfiYBKi8ovFe3636AMHMV+7q9QxTyFdtlf3biJ0XntP3GU/BT1A3+FZm44toN/8oluq9P+D5qsbXfjKJB9iMCsEpCAMKvaJYudtQIKlDTaaBp2kp/kRbSfCte5+FNXrfRaYV2mnlAvsFgVSpptdI4p6LSQEKElLULjfihS34Cdk40OEqI/eCaBa/zJaitmVKxJ0RGoV6FYnbx92YaiU7FjoZf7gUkj4w5O1NjxNahZl6JzP9Sop8/O6WYHSXO1LIyYuqRhtymcrLViUlSsTfbCMungVL3ddQLkI6/QQA0ZIXCywUFctJYl15+RYDI5OV5rw6FRsSFFh8G1o/dfpkac7YWfaKEqZAWq4FhwmlB6i1DGu0BjRBW8EFVA9EfHTzTj7LsMdjN4haAOzQbfYJThyyh9VaiCc1CFJH2wjWt810UwJKIOjsTZeu6T+w/KRxUaP2sPLVm4CMyUgASEmZKVeUVABERABERgFgtIQJjFzZOli4AIiIAIiMBMCUhAmClZmVcEREAEREAEZrGABIRZ3DxZugiIgAiIgAjMlIAEhJmSlXlFQAREQAREYBYLSECYxc2TpYuACIiACIjATAlIQJgpWZlXBERABERABGaxgASEWdw8WboIiIAIiIAIzJSABISZkpV5RUAEREAERGAWC0hAmMXNk6WLgAiIgAiIwEwJSECYKVmZVwREQAREQARmsYAEhFncPFm6CIiACIiACMyUgASEmZKVeUVABERABERgFgtIQJjFzZOli4AIiIAIiMBMCUhAmClZmVcEREAEREAEZrGABIRZ3DxZugiIgAiIgAjMlIAEhJmSlXlFQAREQAREYBYLSECYxc2TpYuACIiACIjATAlIQJgpWZlXBERABERABGaxgASEWdw8WboIiIAIiIAIzJSABISZkpV5RUAEREAERGAWC0hAmMXNk6WLgAiIgAiIwEwJSECYKVmZVwREQAREQARmsYAEhFncPFm6CIiACIiACMyUgASEmZKVeUVABERABERgFgvc9YDQ19fH2NgYiqLMYjZZugiIgAiIgAjMXgGtVktISAhGo/FTi7hrAcEVCNrb2+nt7Z29orJyERABERABEbhPBFwhYf78+RgMhptWdNcCgsVioba2FpvNdp/QShkiIAIiIAIiMLsFIiIiiImJ+WIDgslk4tq1a9jt9tmtKasXAREQAREQgftEwHWZIT4+XgLCfdJPKUMEREAEREAE7oiABIQ7wiiTiIAIiIAIiMD9JTCrAoKfnx96vZ7R0VGsVuv91QmpRgREQAREQATuIYFZERBUKpX7RgnXXZUTExMEBATQ2tqK6+bGT3up1Br33ZdeOg1Ws5mJSRO/z4cnvYzBGNQWhkYn7qH2yVJEQAREQAREYGYEZkVAcL3Rh4WF0dLS4n5GgutMgmvhzc3Nn6piDIpAr5gYnTBh9A/EOj7IhNWJr48vOO1Mmi2gUuHt7YNGBZOTk6g0OvQ6NajUuG6c1Hv7oNOo3X+nNQThp3NgsTmxmiex2h0z0xGZVQREQAREQATuAYFZERBcgcDf35+Ojg43mY+Pj/uMQl1d3acSevsF46+HkdFx96cjnE4n/kEhaBU7Kp03tokhbGpvjHo1NnT4YGHABNFhAfT192NVeRPoq2HS4kCvURi1qonw92JkfBJfHz3dPX33QPtkCSIgAiIgAiIwMwKzIiDodDr3Axs6Ozvdlxiio6Pd9yEMDQ19hooKvbc33t56vPVeDPT1ETYnBsVhQ63RonVM0jU0SVCAP6g0GL2cdA6YCPaFzv5RImITGO1pwWR1oNNqUXn737jEEBYWSl9f/8x0RGYVAREQAREQgXtAYFYEBJeTl5eX+6yB61fXKX/XIyBdlxhcv//kS+U+W2CdGMZsteMfGILaNobON5DBgT6cigq1SnGPMY8OYVfriQ33+0hACI2OxzTQwYTZjt5Lh+JllIBwDxywsgQREAEREIG7IzBrAsL7HK4bFl33Ifj6+rrPJLjuS7jZJxp0el+CAv3RqFU4nXYG+vvx8vEjwM/Xvf3o4AB4+RLkb8TudOKjg56BSYKun0HQePkQGhzguk0B0/gYJkUvAeHuHJOyFxEQAREQgXtAYNYFhA+buW5edD2eWT7yeA8cSbIEERABERCB+0pgVgeE+6oTUowIiIAIiIAI3EMCEhDuoWbIUkRABERABETgXhGQgHCvdELWIQIiIAIiIAL3kMA9ERDMZrP7xz3LT3O8h44MWYoIiIAIiIBHC4SGhhIXF3dTA5Xiut3/LrxcDzFyBYSbf2TxLixAdiECIiACIiACInBDwPWJQdePeg4ODv5iA4Jr765PIriea+D69S7lEjkUREAEREAEREAEPiagVqvdTy92PUrA9fubve7aGYT3d+46kyCXGeRYFQEREAEREIEvTsB19sD1wxFdv37a664HhC+OQ/YsAiIgAiIgAiJwqwISEG5VSsaJgAiIgAiIgAcJSEDwoGZLqSIgAiIgAiJwqwISEG5VSsaJgAiIgAiIgAcJSEDwoGZLqSIgAiIgAiJwqwISEG5VSsaJgAiIgAiIgAcJSEDwoGZLqSIgAiIgAiJwqwISEG5VSsaJgAiIgAiIgAcJSEDwoGZLqSIgAiIgAiJwqwISEG5VSsaJgAiIgAiIgAcJSEDwoGZLqSIgAiIgAiJwqwISEG5VSsaJgAiIgAiIgAcJSEDwoGZLqSIgAiIgAiJwqwISEG5VSsaJgAiIgAiIgAcJSEDwoGZLqSIgAiIgAiJwqwISEG5VSsaJgAiIgAiIgAcJSEDwoGZLqSIgAiIgAiJwqwISEG5VSsaJgAiIgAiIgAcJSEDwoGZLqSIgAiIgAiJwqwISEG5VSsaJgAiIgAiIgAcJSEDwoGZLqR8ImKwKl9vtWGwwL1TN3BCN8IiACIiACHxIQAKCHA4eJ2Cxw7d+M0r/uEKon5qOISdvfdePYIPa4yykYBEQARH4NAEJCHJseJzA0Sorf/3OBG++4E98qIZ/3D9JU5+TXzxn9DgLKVgEREAEJCDIMSAC1wX2llv5p4OTnP5hIBo1vFVs4ZWLFt77nr8YiYAIiIAIXBeQMwhyKHicQFOfg+d/M862hV6kR2t48ZyZryzxZkuWl8dZSMEiIAIiIGcQ5BjwaIE/e2Oc6CAN61N1pMdo6Rt18vPTZvrGnGxfpGddqo7uUSf7L1to6HXyfx43eLSXFC8CIiACcgZBjgGPEFj898MkRWhwOBW0Gng635tVSTp8dCoqOuz87oKFqi4780I1lLXYOfN/BXqEixQpAiIgAnIGQY4BjxZwBYT/Z4eBZYlaChtt/N2eSdamepEXr+U/jpt4dKGeJ3K9CDKo+eovRt03MMpLBERABDxZQM4geHL3Pah2V0D4h50GHkzTuavuHXXyv3dP0jzg4IebfFmTPPV1BXjyv28tIChOOyPDI9id4B8YhJf2Dn5MUnHS3TdEZHjITbukOB1MWqwYfHzufhdtk7QPmIiJvPnabnVBjslh+s0aIoL9brrJ+GAXdq9gAo36W53y3hqnKEyYTBh8fe+tdclqROAWBSQg3CKUDJvdAh8PCK5qxi0KZptCiFGN6np5txoQFMXJxdMn0PiFYfCC+tprLN2wmYjAO3PvgmK3cLzgMhtWLb4pvM1ioq6lm7SkeXe/MWNt7L3Uw9b1ub/Xvk3tFVzq9WF1duJN52kqPcZEcBbp8WG/137u5Ma2kR72lnSxc93CT5328sl3icnbSpCvipprDaSlJN3JJchcInDXBCQg3DVq2dEXKXCzgHCz9dxqQLBbBykub2Xp4qk3CuvkEDVNvWQ+kMRQfy+DI+No9T7ExkShxslAdycjkxZQaYmOiUGnVhgY6GdibAxjcASBBh0dHV3usxHBYREE+mo5XlBOTmosQ6OTaPR+xEZHoL6eZBx2m3sfwQFGBoZHcVomGJ+0YAgKIzI08Ebg6e9qwy80Cr1Og9MyTvuAmdjIADrb2zHbHOh9/ImKDMNmMWOyKwT6Tf1vt6+rnaDwaIZ72zBZnTjVXlO1uPb/oYAwOTZMd98AqDSER0Zh9PFCcdroaGvHYnfg6xdEZFgIDruFro5ObA4nemMg0REh3CwgWM0TtLV3odboMPVU44zMcQeEgZ5ORsZNaLy8iYmOQqNWYZ0cpb27D8WpEBIZTaDRh/6+XkJCw1GpYLinFY3/HByjXZjxwTQxhqLWERcb4V6LyWIlJDya4AADDpuZtrYO7AoEhs0h1N+XzqZraI1BTIyNotEbmBsVQWtNKYfKe9j+YD7hoYEM9Ha716XS6IiJjWF8sI+Lx94jMnMjmalzGegfJDwsFIfNQnt7O3aH4q4/KiIUp32SoaExJiYmsDkU5sTEYfTWfpHfJrJvEfiIgAQEOSA8QsAVELZkerF1oReZMVr38w8+/nI9UfFig8396YYjfxbwmS5Oh5Xjx06Su2INQYapU+B2ux3FOkZheR0LM1PpqL9Kvy6eFL8RCputrMxOZGKwg64xNQ8kRrN3736WrF5PWKCRkuN7icpaRbCvhsLiCtasWcLhvXuJSMolNS6Ea6XniUxbTlTo1Ol4y8QoJdUt5KTGsWf/YXJWrCXMT0PRmVPkrtuKv8/UG01zVSHqoPnMnRNCy5WzdHvNR99XgTM8maToIFqvVeIVnkCwzk7nBKQnRLm3Kzi2l8yVj3Dp4KuEpq0gMSYCX1+fqeDxfkBYk8rhw6fJyV+G2jbB6YvVbNm6nqqzB2FOFolzArhWeZm41IUMNFeiC44jLMCbktNHmZe/hTBT/SfOIJReOE14Qjr+eoWT+94hccUOYrQ9lDWbyc1Kpq+9gRaTkdXpc3hv92GWr1uPwctJWVkl+cuXUVpYQM7S5e4AUXnmXfRJG7BcO0aHKoZli1JpvXaV8oY+1qxdiZ9eRfnlKlasWMblSwWExKcS4OXkxIH9rNz+FYrf/W/80taTuSCGytJSEpasRj/YwK6LHXxl81J0zhEKL7eQmZ5Cf9s1asf9WJsZS+HB14ldupPYMB8uFpWxfEkuRQVnCYxLZU6gN01XLuEdk0l0kIX9h8t58KG12Ec6OVHWyxNbV9wIdx7xjSlF3tMCEhDu6fbI4u6UwN/unmDcAh1DDhxO2JzpxcYHvNyPWj5VY+WNSxaGJhXmBqvx9VLxj49Nf6lgcnSQysoqbOjw8/NjXuJ8Oi8fZdgnkZgwf7CNceBkLV95Yi12RY1lYhyzeZK23hFyM5IovVrL0rxF2EY6eOtMM09tXe5+c+hpbcE3PJKCgmI2rpv62lBbBQPOUObHRX4iIBRcrWft0mz312tLThEwL5fI4KmnQo4N9VLZOsiS9ASOHz1D3orFFBRXs2nNEvffm8cGOX+1lUWJ4TcNCFXnD5CS//CNwDE16dQlhkURZjo0CSxJnQoV1RcOYg99gJraJh7fstq97vGRIawaH/RYsNkcWCxWeupLsUUsJM1n8GMBwcqpY2dZsX49WhU0lhxlMiSTtguHWbzjq4R4a8Bp4a3f7mLx6jxaxw2sTI9277u3p4uQ0AhKPiUg6BLXkhQdyEhXA8evTbJzdYZ7u0uXLpGXl8fJY0dIeWDqa6Mtl7GEZNJd/B6Ltr1AuFFDa1UxQ/4PkGoY5LVz7Ty7dQmKdZLhSSs2iwX7RD/7S3v51uNrKdz/MvNWPkWoAS4UlbEkO4uisgryl+S457eaxymrbCAjKYTa5kkWZbguQdh45+VdPPLMU+jfv951pw5+mUcEblNAAsJtwslms0vAdenA6QSTTaG538GPDpnoHXMS6Ktm1OTk++t9WJKgw6hXuc8uuE5Rf9ZLcdhxqtRo1GocdjvjIz3UNA+gHahEN3cpIX5TD11yKBoCdCaOF9aRvTAVrcpBW/cIORkLuFxVT152JqaeRg5Uj/PYmswbu/z4PQjD7VX024OZH//JgFBU1cyKvKlt60rP4BeXTWTIVEBQHFYOHz7LkmULudbcT9b8cC5WtrFmydR4u2mUY5dqWZwSfdOAUF1wkNT8hzG63pzff10PCEmGfpwxy0iNmfrER2fleVrMgfSMTLJ9Xd5H+BqqyuidUBEXE8FgUzmWsKxPBgRlnJPHSln94CpcJ3jc9yAEpVJ1+izbnv0y3td7cuS1F4lauAS7dzQL533046iXCs7d9AyCd9IGEiP9GOnReQ5rAAAgAElEQVRu5EyTha35qR8KCLmcOn6cpNS0qTUrToxBYVzc/SK5O/6AEB9oqy6hz5BKut/QjYDgMA9x8lwZSclJ6B2j7C3u4Zs3CQiLF2VSXllLXnbWlLnVTPGVajKTw2loM5GRNt/1Vd57+Q02PfNVCQiz65+W+3q1EhDu6/ZKcZ8l8JvzZio7HfzJBh+igz7fJxDGO2uo7IXFC1Pc/1OeGO7lal0HCcEK3bZgMlPicdjNDI3Z6KwqxvjAchICvRjqaaWiqZ8lC1NuBATFOsI7+86xectDeOvUVF+5SmxKCoWFH9ykeLsBwVV/69UCrvTYyXwgjZhQIydOFZCTv5wgo57+jkYaBx0kz/GjqmOM/KwF2M3jHDt8kBUPP8ZnBYQ1af5cahhnzbJF4LRy7thhFuStoazgPMvWrXNfeulubUITEE7j5QLSF6/FRwdXzx3EPieHNN+Pn0FQOH/qOIuWrcV1haTs1G68ElZib7qAd+IykueGYhrpZf+JKzy4Ko1z5e08tCYPnQau1dSQsCCZkovnyXZdYsDB2b2vEr10p/sSw2cHhDwKLxSQlZePj07N5Eg/at8gTr/1808EhAz/YV4+2cjzO1bQW32OHl0CGfOjGOq4xlsF7Xz7iXUUHXyF2PzHCfdTu88g5Oct4sKFQhbmLcWg1zLQ0UDrkIPkOIMEBPkn6p4WkIBwT7dHFjeTAk4F9+UG1xvM5325PsVw7Wopl6sbUKlBbwhmxcoVBBl0XCm6QG1rDzovb5auXo+/MsKhwydxqHWERMVh9PVmUVrijYDg2vdwTwtnL5Rgc8K8lCyykmI48aFPMfw+AUFxTPDe6+/y4ONPYdRrMI/2c+bMWcbMdgxBc1i5Ygm+WoXCMydo7h3F1z8Uo2qcxWu3fGZA2Loum6aaK5RWNeBCSM9ZRlJcBJaxfk6fOse41U7InHiWLc6mr6WKs5cq0PsYSIgKwGKMJ8N/9BP3IPR1NHLqXBFavS/hBgcBC5aTFhNAccFp2vtG0fr4sWr1KgJ99XQ1V3KxtAZXH5MXLuGB+bG01V2loLjSvR9/zThxeVtuKSCMDnRx4uRZnCoNxpBY1qxazKk3fvaJgJAdo2HfG6/jE5fB6twkjhw4xIQNomOjaGkd58kvbWSgsYyjFxt45IlHqSgpY/nSxYwNdHHq9DksDgW/0LmsWp6HYumWgPB5v/Fk/F0VkIBwV7llZyJw9wXGeuoprDexfnmG3AB39/lljyIwawUkIMza1snCRWB6gbbqYgpr+9n0yEYMus93GWX62WWECIjA/SwgAeF+7q7UJgIiIAIiIAK3KSAB4TbhZDMREAEREAERuJ8FJCDcz92V2kRABERABETgNgUkINwmnGwmAiIgAiIgAvezgASE+7m7UpsIiIAIiIAI3KaABITbhJPNREAEREAEROB+FpCAcD93V2oTAREQAREQgdsUkIBwm3CymQiIgAiIgAjczwISEO7n7kptIiACIiACInCbAhIQbhNONhMBERABERCB+1lAAsL93F2pTQREQAREQARuU0ACwm3CyWYiIAIiIAIicD8LSEC4n7srtYmACIiACIjAbQpIQLhNONlMBERABERABO5nAQkI93N3pTYREAEREAERuE0BCQi3CSebiYAIiIAIiMD9LCAB4X7urtQmAiIgAiIgArcpIAHhNuFkMxEQAREQARG4nwUkINzP3ZXaREAEREAEROA2BSQg3CacbCYCIiACIiAC97OABIT7ubseXJtpfAR0vvjodShOB0MDwwSEhaBBob+3B423P0H+vjisZnr7BwkMi8BHp3GLjY+PYzQab6o30t2E0xhJkNHnlnUV2wRXmwbITJp7y9vcqYE9bY34R8Th4zVV20y/bFYzFocao4/XTXbloKWpnbnz4lB9ykJsNisarQ616uYjJkYH6ZuA+DnBUzM4rVRW1jE/NQ299vo2ip2enj4CQsLxvt5TUBgd7GfCphARHo7aPVSht6eP8IjwmWaR+UVgVgpIQJiVbZNFf5ZA4Ym9nL5UyeYnv076PH9ef/Elmnvh+z98gd6Sw5y82s3YQB+PPfc8BW//GqtvGP2TXnz3W0+iV0N3dzeRkZE33UVL6RFskbnMj7r+BnULrVAmenjpSA3P7Vh9C6Pv7JCys4eIW7iWYD/9nZ34JrM1XjnL3qMXWbj+CVYvjL/JCAsnj55n1YPr+LS4cq36CpGx8/E3+t50vZWXS0lIyXAHv/dfpt5aKnq8yMuY5/5S/aWDdFoDaB+Gr2xZ5v5ab0sNr+w5TXiAjoCklWxZuoC+awW8cryOP37ha6g+JZDMOJrsQATuYQEJCPdwc2RptycwNjrE0dd/wYINz5KREExnwzV++9ZZvvfDFzjz2x8Tnrud0crDaCLSOH++hO/+8XO89OP/4onv/jlRQXqKLhWSm5fLkQP7iYiag11jJMjRTZfZiK2/npjMlbRWVxIY4k/vqI6YIAeKTwAmk42kCC+qWgZRWceJjI2nqqaJ6DAfyjucfH3Hapx2G6UlxWj13qAzEKYbo3VIQW2fYG5cNPuPlZGbHsW15iEWJETQ3jVBcrSaxlEDXqYuFEMYXpYhAhKy8Tb1MGm2MmzVkpnoT3lFG756FeFzFzDcdAWHIYyB9noyshZRUtlEeIAvCRm5hPvrmRwforauCbNpgnlJGXTVlqD4BGO1OXCOtGIJTCLOYKZt2Im3cxz/mFR66q5iDAlBawwhVDNO28AkXjot6RlZ6HUaxocHabpWzqAugdWLpgJCX0cTjR394FRISk+i/EIpQdphAtI342w5y7jfAtoarhEZHkRoTDwtV4vxj0oiWGemb8SEyWolLy2CvSeqWbZqFe215eQuW0XZxVNovP3QG4JITY7n0vkL5C1b7j4z0Ft3kYLqIRakZ5M2L9z95j861M+4w4v+uhJalDmsWmBg37ESHIqFZ576knuMub2cY1XDROhNGOdmofQ3Y9ZoaeqykxmjptViRD3SjsoQisY8SEhyPo7eGmyKhkkb5M4PpuBqKz46FTERIZy+2kFmnB/dZiM58UYauocZ7R9kyZplVBYX4+3jg7d/GI6+eiY0/owODrIgIYrKlhGCDFoy85Zg0N7e94BsJQJ3QkACwp1QlDnuMQEn7/3yX0hc9zUyEiKY6G/lP395wB0QrO2VvPLOUdQqO1nZyzhztpg//MFzvPSvP2HHd/6MmBDvGwGhuLiM3JxsikvL6K0qZuVT32Ho6hFGNWGcuniZ+Mhg1LoANm5cxG9+8gu2Pf89OgrfpW5Yj0GvI8Rfj2rOIpbE2HnpSK37DILVPMnVmkZyFqajKArn9v6O9Ae/is7WRUtjO2WNkzy9I5fXfneCLz2zhQOvvkFiagyO0ByCJ6toccaQahikpFtHqLObtr4RRuw+bF65gP4xNeF+XnSODtFQUsvDTzxKxdlDzM3Mp7roHH1mLRsefBA/vZqJkX5Onb2A1WYlMzeb2pJaHtr+MGpFoeTEe0TkPUrr2d0s2LCDcEcHe863kxvvQ8Hla6QsyicuWMvpU+cwRsSxfEkOOs3U6f36y2focM69ERDqK0oJnptMsJ8vqKzuMwgfDgiWsIXYe6q41j7E8rUbGe2qY87cBVwuOMLAhAqNly/r8+dxqdbEmvxUzp8qIH/NKtpqLnPxcg0ZeStIS4im6MI5Fi1ZjhYrb/3uTaIT5xEYN5fJrmFy8zLdaxvprGL/uTqefHwbp/fvwmSIoLOumpUP7yQlLswdEKrGgsiOcVDUaEMzWEfHhIPGlgkeWpGAOnYpvr0ldOuTmKtq5cqQP5amApwaHzSGYB5ak8Opo0eZwMiStGgKWx1sWzGPV3+9hzXrsigorcU8PMaqxx9iuG2IzAeSUBQzr/z0f/CLicdL50Xe4hzKLp7Dog/loQ0r0X3atZh77DtOlnN/CkhAuD/76uFVfXpAMKgULpw6QlufmY0PreHMvnfAGEL/mJOnnnwUH63qpgEhWDXCoCYMS1cVEan51FdUEh0Xg8Y7EGW0E4xBTIybSQxVc63LRIBBT2hwACVVzcwL96aw0ewOCK4zCCUlJfgYjO57JAKcA3ROaFHbxoiKnsPJ4vapgPDKCb709M0CQiyphgGKOkBv6SMoyJ+6jlHWLp5H/5iGcD8dnaOTWDrq0YbE0N1YTXLGQtq7h1DG+whOXkJqTBD9nQ3UNvWiwkpEXBLDzZVo/SNwOhTMffXELN2Bpucy9f1ODMooXmHzsY92o9Go6BhVsTDOSO+IhbGhAbLyluHnO3XPwccDQm97Iy09I2jVkJCUQGlBCYnR3tQP6mCwnuCkZZhH+9ApVhx+sYRqhhm2+xKgHmfEDN6+viTN0XKucpw1+RlcKjhL9tIVXLtSgqLTMzxqJn/pQoouFJOXn4/aaebw4VPExkVxubSYhMyVLMlaQF9bHa+89jZzU7MIDY0iKT6EyUkL58+d5cGtjxEZ7PfRgFA3RnNNLUnp8ym8UMPKpQlorgeEHn0SsapWro4EEGxrR+s6k+HjR5S/k5rWIaxDnQSGz6G4vp+sOD+6TAZivCcZ1/gw1NJExvqHaK8oc9/n4u0fwnhLBU7/Oei0OkL9vWjtn2Cir4PU5Q8xx6j28O9lKf+LFJCA8EXqy75nTMD1v3NUqhs3w7n+/P51ZvffoXL9NSgKrj/d+LP7S1Njb/are+T1v5tavHuST4z/5Lip7Vyvqf1/sM/3//xp+3TvwV2La63Xf1Wm9vv+65PX0BVXaVN7+dB6Pzzuw/t1zXVjWde3+fBaP16zq5SPbn99JW7P67Y3vnRd+GOm1xfn7sH763x/HR9f8/u9qKkoJ2Z+mvsMzfuGw41FtKtiyUi4ft/IjZ5+UP8Hff7Q1z7U66mvvu/7/pI+8P3I+j7Ug6mefNJ5vLuBk/VWtq5IvX4cflY/pu/VjUbLb0TgLgpIQLiL2LIrERCB30/Aahqne9TG3IigqYmcNuobOpk3P47rVzl+vx3coa0tY4M0DTrcly7kJQKzVUACwmztnKxbBERABERABGZQQALCDOLK1CIgAiIgAiIwWwUkIMzWzsm6RUAEREAERGAGBSQgzCCuTC0CIiACIiACs1VAAsJs7ZysWwREQAREQARmUEACwgziytQiIAIiIAIiMFsFJCDM1s7JukVABERABERgBgUkIMwgrkwtAiIgAiIgArNVQALCbO2crFsEREAEREAEZlBAAsIM4srUIiACIiACIjBbBSQgzNbOybpFQAREQAREYAYFJCDMIK5MLQIiIAIiIAKzVUACwmztnKxbBERABERABGZQQALCDOLK1CIgAiIgAiIwWwUkIMzWzsm671mBkb52RtXBxIb4fvYaHWY6B0xEhV//0cV3sCKH3cbopJUgf8NNZ60pPkXIgjzCAj7694rDTt/wBOEhAR/Zbmywh6raBsLnLiA+KpSuljpae8dJz8zEV2Ol4koFik8o6SnxDHe3cK2lm7nzU4kOC7wxj800QvmVakJiEpnnmqOplubeUVLSMwk2et8YNzbQSWVdGwkpGYT566irrGDIoiIrMx1vL617XH93C7WNnSSlZRIa4ENjTQUjdj2ZDyShVatAUehtq6OhY5DE1AxCDBqqKq5gwYeszAfQadTueQZ72qmuayJ6XjLx0eFYJseorKgkNimDsMCb293BNslUInBPC0hAuKfbI4ubjQJt1UV0aBJYmhSCojhpaaxneGyCiJh5uDJDdW0jisabYL2Vg5eaeWrnw/gbvBkf7Kayvh0NThKz8jB1N9I9NEZkdByMddAzakdR1KRnpDPQdo3OwQmi4hcw3N2MXdEQFmSko3sA38AwAlVjFFa1s3rNKgY7Ghkz24hPTEJlHqKxtZvBvg4yl65zB4SJwS5qmrrQG4OIDYB9Z6+yZuVSTBY78+OiQLFwfP8h5iTOp7TwEmtX5nL0XCWLkkKp7rET569gN0TSVXmB+MUPo4z14uuj4/SFKr7xwjP4qgCHmXdefZmw5DzqSi6ydMNGThw9RXbWAmq6rHzj8Q3uVtsmBvnNS7vIyc+hoLCCjeuXcKKggrQoH8aNiWzOTwHnBLve2E1mdiZXKhrJTjBQ1uYgXDOIMzyDCPUwvuFxNDe24O8Lxy428uWdq2jvHmWytx5LaAYZIQ6UgFhG2qrw9Q+k4GIpTz+1nT27dqHxCyVvyTLCg4yz8fCTNYvAHROQgHDHKGUiEZgS+HBAcDocdPX0Ehxg5EpNI9He44wbEvBXhjEafXnvQjtf27YcFAenjp8mb+1aqs8cITB9Od311SxMTaC4uokQpY+gBcsxtRajD47mwuVOtq5L4+ChS3j5+bLp4XV0NjUTHhvJicPnWLE6l6r6blJjg6nvGiIu1EBTvwVL5xUyVm2jtfwkkWnL3AGho7Ee/+i5FO4/wKKH1nGp+BqbVud+tJ2KQk99CUdLO1ieEsKFRjNfWp3AS/uL+MqXn0SZ6OX1t/ay+cmvEekzwk9//CLBmat4KCee8stXCYuI4vzp4zzy9HcpfvcXxOVv5tr5A7T2T7DkocdJCrJRUdtCVNQcjp4u5ztf38Ivf/4imx//KofffpUJu5odz3ydxHB/sHTxxnuF7Hx8G3vffoPkaCP144Ek+gzSZAljcUo4PqFz8dcO8Z8/fok5eZvYuSaDmnO72X+plS8//x2M9mFUhhC8zb381y9fITZlEU+snMtPXj5OUlwwY6oQHt+6Xg5pEfBoAQkIHt1+KX4mBD4cEOw2C8UlpYQEB9HZP0FmQghdQ2ZGetuZvyCRg0UdfO3RFeC0c/J0ActXr6Li7BH8UvNpKCtkQWI8itYHc3cFockrMbWW4NT7c7aslRV5abgCSH1rN5s3LOPi+YsER4ZTXlLNQ5tXUV3fQ1K0kbKqZuKiI/D2D6Gp9DTZ6x+lpfwUYclLCAvwoej0aXyjYqi9WMzKHY9QVHKNzR8LCK01ZRTXdrNy9Sq0w3XsudDCw3mxHCpuY9v6XM6dvUBS9nLmhhq4Ut1AQkwob729n+3PPAsTg/h469i/600WPbiT8iPvkJCzirIr1Ty8KoN9pyr5+pc3Mjoyjl7j5LW3DrHzsYfZ9dZeVqxeSlXzCDlxeko7VTz9SD44R3jj9cNs3rKOQwdPsm3bJioul1F19TIJuRvJig/C6lSoqmtnQZQfL71xiG07NuNQ+eDoq6VixJ8dK5JQ6Q3UVV4mYUESe97bw+OPruLdQ2Vse2gJew4V8KXHH52Jw0PmFIFZIyABYda0ShY6WwQ6rpVypPAa/r46opIWYuqopH/USlhsIjmJQRw/W4yiMfDQQys59M67LH1wK9HhgfS1VHPoTDlOyyRrn/w6w1XnqGnrZ15yBkZLK8Hzl2FuL0MXmU5fzQXqOkeISV7E+FAfG9bkU110hpL6btSKhkd2bub8kcOkLV5Ly5XzDE7YyFi8HKO1l6KKRpwOGyvWPUyIvy8Nl89TUNGOHjtrtz9G6YmDhManMmlxsDL3AcDMb//zv+izgFpv5KmnnqDy3GEq20d4cOsO2i8d5kpLn7s9KTkrCbB2U1LdTHLuGh5annmjbT0N5bxz8Cyhidk8un4Rp/bvoaa9n7y1W8hPj78+TqGi4CinSmrJWL6JJQuC2PPuu/RNKGza8SUSIqfujSg9e4gzJbXkr3+ExRnzOfDWy9gD57N5/VJO7voVUdkb6aq4QE1rP+nLNpIbb+Dtt9/DrDay40tfpqvyHM452ai6Sjh18QqpOSt4ePViLhzfw8WrzazdvJ2FSXNnyyEn6xSBGRGQgDAjrDKpCHx+gb6OZlq7BxgaGmP52jX4aD7/HLKFCIiACNwpAQkId0pS5hEBERABERCB+0hAAsJ91EwpRQREQAREQATulIAEhDslKfOIgAiIgAiIwH0kIAHhPmqmp5ditVjw0utvMFgsFvQf+rOn+0j9IiACIvB5BCQgfB4tGfuZAtbJMcquVOBwKmh8Q1iyMPmWxGxj/ewubOLxDXmfOt400o9V50eA7wcB4MODzUNtVLZOkp2VjOu5PK5XxeVS5qVmYrj+9L2bTX7stf8gJHsni5Jjbmmtn2+Qjdd++u/k73ye+Mg7/7TEz7cWhTP7XsMZk8+ahfM+36bXRw80lLifI2CwDTB/5Q6y5oXc1jx3YqOhvi7UfuEEeN/8Ts53d73Jlu07sZsnqa9tJjk7E6/3D4zbWEDR6QOMB2YyWHeRbY8/ju425nB9lPXQ7reIW/YEqRFTT4T8xMtppamxjej4BLy0n71g19MyB3s7GcfIvKib96K3vpQ9Fzp49pmtn7rm0f4enD7+BBp8bqcq2eY+FpCAcB83926X5noS4PmqLlYsSkKl1mCbHKa+uR1vQyApSVEUnS8lOG4BSXMjwGnl6uUrTFoVkhJjOV7exsr0KPyCwjAN9aMJDGG0o4me/iHCo+bSVlGANSiZlVnxVFTWYtcYSJ4XTkV1I5FREVQWlbBu23ZG26po658kdO4CInTjHKsaZXVqEOOaIGKCXf8AKlwuusCwBfz8AhioOo5/ynom+jrIyF1CV0MF/eMOFi5eSrDBy03oNI1w9EwRfqHh+Nv7CUnMZaixBO/gGOpaOvHROAiIWoB2sp/o1Ayaa6t5ICma2qZerhzfjX9CFgFBoSzOyaS+opSeEQtpWdl0NlZjt5lxeAWTn5Pu3pfitHO5tAyLw4pVMZCfl05dRTkd/aOkZmZj62+ko38cq1NNTlYKJUVlONVqQqMTCNKM09g1TOy8+Vj6WukaMpGcmU2gZoLi8ko6m+uIyn74RkAYH+yipLwSrSGURZnJVF8uYcSskJ2bS0vFJUbNDrSGYHKykrlSXMTQYC9dYxp3QCAoltCQEJbkLaKzvoLGjn7iUzLxMvXg9JvDcFsd89MXYfSZCnT9nY30WQyEepvoM3nja++jvrWHuYlpLJgXdSPUNVaX09DeT1L6QoJ1Zkqv1OIbEsPcMD2NrT2YJyd4IDubM+++gS0omUXJwQwMDhMSFsNAVzN2rYGlS/M48O4utmzfTOGJU5wrbef7P3wBw4feb7ta6qm41kjk3PmkxAZTWFTqPqYyU+IpKq/BV+fEGLmApHAvCovL6evtJDx9A4M1p4mInIN3UBQ5GUlUlF6ie8hExsJMWqvKiZg7j7qmTlasXI63+w3eSWNlOY3dwySmZlJbeJSYxdux9NSyMCONsitVZKUlUFRUgk3tS7jRyYEj51i//SuEa0eobuoiJjEV1Vg3PaMWEhYkEx0e7DbtbKjgzNnzhGasZ0PO/Bvf7qbRAYpKyvHyCyXGaONQUTu5qXMIiUtltLUa36gFjHfW0TtiIi1tAecPHcAalMCjG3K4XFKG4h1A1vw5XCytwjckmmWLUu72PyWyv3tEQALCPdKI+2EZroCw70QhUaGBRC/IYLCpjLTcVbReu0xkXBSXCq7x4MNrcD0qv/3KaXq8k0kPtVDTPkpdr5mMaD0RsfMZamtEFzOP1tILZOYupb93EM1YI8N+aZhqjhOQvhFb0zkmDXPpsxnYlBHMb4/X8Oy2PN749Tts3Pkwja2D5Dwwh1/++iDfeP4xpp68D7a+at44Wc+WlQkcLmgl2FLHtUENsYvWkx1m4q3T11iTEUlRO3z78dXubewjnfzzT3/Ho089R9OZV4hf8RRtBW/gH7eQc5eq2fZwHvuOVbA4PQRtZCqlRw+y6cFc2k3edBQeIWPDdkqP7CVlUS4XXY8/zormfO0IYepRFq57iKIjR9j4pc1UFpTiFxlH61XXI4sfpObcYRZteJDyC2WsXZrK8Ut1JBjGICKdieYS5ixI4/TJQrbv3MT+9w4xLy6MdpORFckBHC1u5eEl8Ry+WEe0H+iiMrC3l+IVl4ufYxCn1hdluJUhXTTh3nZCY+cxODiMr6WTHk08I1UnyFi1ieLTh0lJjKO0ZZLF842UNIy6A0LYA8sZrDqLcV4ODddq2LQ+n30HzrNl6woO7d2HITSBJ3Zuxksz9a7cUHGBhvEgEv1GqB/1x9RSRN7yFXT2jBHoZaGl38yS7Hns3nOODWsWUlbVSn9jDQlL1lJ34ThRqQvpm1CREQFNlmCibC3oU9YzWXWUYeMCksM1DJi0mNov45O8gbaSQ2zZ/hi24U7+81cH+MO//M5HAsLhPbtIyV9Hf2sL0YFqBuwGas68R0TqEs6cK2fnoyt5d18J+dnhTBpT8Rkoh+ilDFafZunGRzh/8AAr1mRxrriTNYsiOHe1n/x4Ha8fLCRt9aMkB1hpaOshITqEdw5eYNumFVwsbyFIP8rcnC1UFx5lx9aH2bX7MGvSI7gyoGOuwe5+0NW7uw7w2JM7eOv1t1m7cTVnTlwg0vXzOkISWbogiIprzcxNSncH7YtH3mE8JIu1KUGcvFDmDooTTZfwjc9lpLWCoIAAiuqHCNeNE5P3ED3Fh/FJyKW9oYZ1yxcxaNKgdFdij86E9jJGfedCbz2BkeGcvVTL1h07ifvCz37dD/86zs4aJCDMzr7dk6t2BYSC6h5W5SSj1XlRev446UvX0V53heDoMMqKWtjw4HL3/xabSo4xHryQtAgt3X3DXKjrIzNaT1BMIqOt9XjFzsPS0QZaDcOjViJ0gwz5pTFcvg/vxBWEeDlQa1XUj+pZn+LPy0eqeG7rEiqqavHxUnG1eZxHH8zg1785zLPf2Mn7J6JNnRXsLerkkZUJ7D9ZR5CljjaTH/rQeeQlGNhz6grLspOxeUey+vr/ylwB4Uc/e53v/MmfUrjrPwjPfoSWC3uISMrmfEkTzz25gpdeO8v2TRkcOV1MfHQkze3drNu8lbL9r5G/8+sU7fk1EfMzKKpoIT8nFStGepprePCJnRx/813WPbkDe/8gWi89Z44cIOeRJyje9yZJ+SupuVrPuqUpHDpbToKfBf/ExYw1FWGMjOPMqUK27dzC4d37mRsbxoRfCosjTewr7pMK1+kAACAASURBVGb7inm8c6SYCKOGiMy1mOpOQewSMuf6o6g0jPa00j5ooqO5idRFWTTUdxDiNYYjNJPJhvMsffgJLh55m+g5EdQMeLE62ZcTl7vdASFq0XqGq05AeBod7Z1s37iUXe8cZtO2DRzZt4/AOcnseGQd2usBobGqkMpeLxKMI7RZQwhVBnFio3NIxar8TCw2JyE+Ft7cV8iWTavo7uzh/MnjhM7PwqhxYPTzptvmR3qInSu9WmKUVohfgb3hHP4ZD+I9cJXSpkn0E61EZD9C5+XjnxkQrpZewoaa5vY+UkLsNI75MNhQRlz6Es4X1vKtZzfwy18fZXF2BL7zVkHrOcyhixisOceaR7ZxZt9uMvNSuVo3ytqcGI5drGdlWiiv7z7FooeeZFGsgfFJMxrLEL/dfYGvPLmJ9o5BeluuEJOzhcqCg2x+eAO7D5zgkdVZ1DT30dveQFZuHof3HnGf/di1azcLlyxF5bBjGuwiKG0t2fFGBoZGMfgHun9+x/sBYX1WLN19g+h9/ag4vZuQtJV420dRLKOcutJNhH6C4NTl9F85TWjGGpSRDhT7BA5DDKGWViZCU1DaSmi3+BEdbCQq2JujhfV89ekn8fmUqyH35D9Csqg7KiAB4Y5yevZkE8O9lDYOszI7yQ3R3XKNwvIq/IIjWZmfyoWCWlauWjx1Otlh4uihw4yYYeWKpRRd62ZFcihHz1xEcahYvnkTPVcu0NY7TFxqHsmhdk6WtbEmL5ljJ87jUPuQm51K07CWVZlzeO/Vd9n45E7qCo5R3zdO5IJssqP1HL7Sz9I4Lwa9YkiLdv3wHYUDu16ha9yKwX8OUaoOgh5YT/35gyQu3UhXbRFNPRMs2bCF+aG+KK61mod5+a2DPP2t72BuLmL3qXJcZ85TU9MpvtLKl7Yt5s33CnnmqTX87pU9PPbYFt59Zy+PPf0sZ9/+NTmbv0z54TfIWreDhtLT1LYPs3DZOvrqK1i5dRNn9xxk1Y7tBKjh/2fvPsCkuu77/79vmbq9s51dWMrS+9KEQCAhJNQtybYs9zixHdtxHDuJk9hP4sSJ7eSfOHb+thM3uRehBkgI0YRY2tJ72V22sb3Nlim3/Z6ZFbIsgYRYQOzwvc+D9RjuPfec17nnzOeWueOYEV547jmmLl/NoZeeZfLSe6jdtZ7j59pYcvvdhBoOkFg8g4GGg/izcnnhuY14klIYPWke+a52mpxCVlaUsmXtM5w638ui21eT5+5lzbrNaJrK+IqVLJg09IbA6Jsb1764DXdqAcuXzuGl554hrHgomTQXo/EQM5euZv+2tcxYuJQdG9fTbyp4k7LxGV10hR0sNYGHHriLE7s3UXW8jhmL78DdfRp34XSaDm2nfM5iUl69rx0JBli7di2W6qFk6iJSBs6y98Q5Js++hQWzJsWuKkWXvVvXsed4AwtvW0Whr59nN7yMOyWfaRPyaBr0Mj7N5ESHxsT0COu3HqZ8fB65k28hPdLIU89tQHN7mbTwbrrP7mb5yrswAy38+Feb+eCfvQ+7fyD6I4+ASmP1YbbtOUhp+WxmF3tZ88IufG4YXVbO/sN1vP89i/nlb17mwQcWsvbptegeH+Mr7iJQU0lvZyeeUeO57/ZFvLT2SU6f7+X2O1bE3kA5tWIR217Zx3s/+IFXn4+w2LtpHfvPtjD71jsJ1FSRP3MVLQef52htB77UbB65Yw5PPbsOQ0ti9eo72bfhKTylcxlFK1v2nqBo/HQSjA4Sx1Qwa2zW6yYZh33b1jOYNonFUy+8iRICbXWsefYF/JmjqZiYzfYj7VSUp7Jx2z50FWbcuprOk5Wca+/jluV3k+a08czmY9z/wK289MxaQnoydy4oZ1NVNQ8+cC9eCQg37cQuAeGm7fr4anigrZaGHoXycaNfu5995sRRskdPIOWPToEstr/0Il093WSVzmDBzIkXh3BCHDl4AhNISc+hNPqrhjfaEmzl+z9+mkc+9FFS/TfaLO7ELmO3B0IxtehPP2ck/eEnna83pR0JcuT4KexYQnAzefokXMN4aPF611/2JwLvhoAEhHdDXfZ5jQSik7/M+tcIV4oVARG4yQQkINxkHS7NFQEREAEREIHLEZCAcDlKso4IiIAIiIAI3GQCEhBusg6X5oqACIiACIjA5QhIQLgcJVlHBK6RgG2GGQwZKIqC2+PFpb/9bzwPdJ3n4Jl2KuZNe+3rm++kepYRwbAVvJ4reh8gtmXEvpbo83pwbJtgKIjjOCiqjs/rRbnCx0Da647TFklkUtnQtyxkEQEReHcFJCC8u/6y95tcoLu6isNtMCrVR9B2k5viJiOvmP7OJgxbJzEjG5+uYFsmzU0N2HoC3lALv33pGCtvryA7p4Akj0JTQyN6Yio5GSl0t7fR3R8kv6AAj2vo2w3B/h7Ot3aRlTOKM/u2crrHzf133kKgo4Ww4iMnLYHOQJC0BJ2Q48YO9uBLSqevq42g7aIgL5Om+vPoHo2uulPsrwlw/wOraD59iKCSQKLfzWCgA8efT0GqQn8EEnxeBsMmuel+mrsG0K0wtu4hYjpkZyQRGDRJcjs4niRCvR20naniRG8iMyaWkF9YhFsxaGhoIiUrD5cdJBA0CQcHySssxK0NvfoqOBCgqbmN7NxCkhNcNNXXgzeFnFQvtQ3tRN/M7U/NYrCrlcTMPFL8Q2/HlEUERODtBSQgvL2RrCEC10wg+srm2oFkMn0R2oMu3L1nSB9Xwf4tLzFtwQLSogHArcTez7D1yHm0cA9lpcVs3nWYkrx0eshkSo7JgdpenGA/S+6+l4M7tpLsU3DnTmb5vEnRd0Hy5I+/jzcjl+6gRl6iQU3AxfySBLYdqsfrBBkzawlNjU1MzbaotfLxdR8nt6CQ3UfOoYa7GTd3Baf2bsaTWURxosXh+n4eXj2fyv0NjM1W2XO0lrnL7qS3+gChQBvHmiMsmT2RA9Ud3LtgDM/sOE1SuJmAnsFAez1TKpZR3dTFhOQ+elMmYzcfIjtJY091gBR1gOwJ8+mv3kOfmkx71wC3LpxCZdVJcpIUUsYuZMWcMbF3Wqz97c9xp6QzYLgZ7e/laKtDqKOBafNvZdvmzZSWFlNT20jJ6Dwa+/185sOrX3ur5jXrVClYBOJEQAJCnHSkNGNkCkSvIBzr0MhL99PRbzKxKJWDBw4STp3A8tnRD8GhJdDeyKHjZ+nu7mFMQRbbDzfzwG0TWLPhEBnJJnpqCalaiIziMs7XnCY5QaE9lMy9Kyqib6Xi6N5dtHb1YrhSKUoc5HCnj9zIORrNNArT3CRkFXL64D5crgh9lh+fYzJ39iSOVrdi9zbgyZtKy+kD3P6+PyGh7QDP7TnPLVPSqOlPoLWlg/mT84n4MgjUHqa3/TxO3jzm5xk8WVnzRwGhcP5q2vY+R3r5Eo7s2UN6mk5nUCMjwc+4URq14RwmJnVypNmhofok5TMrMPu7SEtPocVIZHKGweE2F/cvnQ6E+f2vn479eFJnayM71v6eCSsewz73MvXBRE4cq+f9j9/Bz3+1lQ88spgnfr+Tv/jMY8g1hJE5VqTW119AAsL1N5c9isBrAj21BznW7pCZoNET0Zk1qYSnnnyWFQ89QrjlHL6cYpLdCg3Hd8XeUmkOdFA6upiDZ7q5+9Yy1m45xczxKew70UySV2fGwkXs2baVZL+GnVLKuJRBXNklHHp5E8mZ2bT1QcWELDbvP8eCSblUHqwhI8nDhAV30HtsM412DvlqK032KGbkWbx8qAmX2Ud22Sw6ao6y9KEPktp/mp89t5OFM0ZzftBPd0cHuckKSmIyVkTHG6onnDmDRWV+fvrrdaQkeDC96SSG28ibcwcdB14gc9pKeo6+RCijHG/ncYIZkynzd3I2mMG4xB5OBxJx91TTGnZjGQozpo2mLuBiYrrJ8XadPL2bnEnzOPHyc4Rxxd5CODHTYs+ZTsK9XcxdvIStm/fynkeW8ds1O3jk/gp+/exePvknD1/ZLzHKMSsCN6GABISbsNOlyTeOgBUepLO3P/brl6mpqQQD7Rw+28qiudMIDvSj+xJxRV/BbNv09nbjqG4SvTqBgQgpSR56+8KkpyXR290NuofUJD+B3l5MR0HTdKLPISq6F8WOEOgbJDE5FY8O3d0BklJSCA8EYr8MmZqWQmQggIE7du8/7Ogk+910d/WgqAqK5sYyIySlpuNSHXq6uvD53FS+vJ3EjBz8Pj+JaankZudgBgPYmo9Ev4e+3m5sFGxHRXMMXP7k2L/rvmQwBmLraVYIU/XiIkzY1vGoFmFbIym6/+4eXL6k2N+FLIXorzsHTXApFm5fAo4RpifQR1JKGl63Rk93F2g+kv2u2G8WpKYl0dPdT2pqAt29g2RlpsmrtG6cw19qcoMLSEC4wTtIqndzCUR/v8KbUUhqYvSnqW/8xTLC1J49S78J48aNw3+F34y48VsqNRSBm09AAsLN1+fSYhEQAREQARF4WwEJCG9LJCuIgAiIgAiIwM0nIAHh5utzabEIiIAIiIAIvK2ABIS3JZIVRODdEHCIhCOYlhX7hUqv33fF39+3TJOIYeD2eNDUoRcMXfvFYSAQQPMmoKvEHph8Z29YdDANE1VT6e0JkJyWhnaFb2i89m2VPYhAfApIQIjPfpVWjXABxzJ4pXIX2dnZgE7JuDG4r+AD0ggPsnXTZgxU9KQcbl886zrJ2Jw+WEVSwViO7tzGpEV3kZd2+W8gcEIBnl67kQVLbuHXP/8N7//kp8n0XKeqy25EQARiAhIQ5EAQgRtQwDHDvLhtN4sqZqFqOr3nDrL1cCNzFyym+mgVEctmxtxF1O5ZT5eTQn/fAOnpSQwGTW5bPJM9JztZvnAqocF+TtWeZ3ROIs9u2c8H3nN3rLWn9r3My1XHySqawPwp+bzwwhYM1cfy21fw8oa16H4fg4ZGmh6mT89m2ew8tmw/QiTUT3ZOFq2tHdx614PU7H6BmUvvYf/WdRTmZrL5QC0ewoyfdxt9J7aj5U/mdNV2MvJG09nVz33338G6dVt5/GMfIFGz2LruGU41tDK54jYi1S/jLrsN6+xmGs1UmmpOM2HyDKrPnCQ9IxXDncsDK6by/Nr1DFoubr3zHhr2baShM0Bp2SROHDmENzmT+x64l6TodzllEQERGJaABIRh8cnGInBtBKIBYcNL2ygrK8XtT8Ez0ECfpwDfQD3h5BJyEuH4uXac9hOMmXc3dQc2kjflVgI1VSQWzyA3I+m1ipnBXja+sIHiqQspH5MPRPjtj3/C4tXvwR7s5diel/GULiArUs2hZjA666lYeR+vrHuaW1ffy+Zn1zJv2Sxq68NMzo2+qMjPhLQ+6iOjiNTv/qOAcLDJZPHEZHac6sM/UEf+7BWceHk9C+79ENXbf0uXkkZSzljuWjwFnBAvrd+AERmk204ly27CP34oICijpnFwzw7ue/R9rPnVr7jvkYd46tdPMmveNAa1HCakBdl4tIsx7m5y5y4lJdjOlsr9JCSlsmTFClK9EhCuzZEppd5MAhIQbqbelraOGIFoQNi4vYrbly6M1bnt7H76vYWkKl00BXQyEhU6BxVCjQcZW7GahkObGDXpFgK1VSTkTSLB7yM50YcZCbLuyV/hZExk7qRSsvNy0BWHDb//GTll02lpaiRJj9BqppBktOKkjaXl9EFuufdhtjz1O1Y89CAv/m4Ns5fOorHZYfIogxMdCYxPC1DTl47Tup/0kimcPLCXqWX5HG6BpZNT2XK4A/9gPflz7qB6xwuULlhFibuDH63Zzvs++hEK0pNwAg387NkdzC7L5kBDkBJ/Hx16Psb5w7HfYjhetZ2KpSvZ+uJGHnn8UX7z01+ycNktnK7rpDTNoc3JJClQQ9myVdBaS2vIR9fZvRTMXc3EUd4R09dSURG4UQUkINyoPSP1urkFHJvWjm5ysjJiDuH+HkzNh8+t0dbaimlDVnYOgz1tJKTnEuxti11eNwa60VweugdM8rLTMCNh6uvriEQ3QKd0/NjYswwDgS7Ot3SQkJJBdpqfxsYmLMVFQX4ureebyMwtoP18E9n5+bQ2NpGWnUYw5JDsceiLaCS5TPpNNz4lSHNHL7quk5nipzfkkJXspr03jGYF8aXnYvd1MGCpZCTaPP3cK9z/8EP4o7cAHIvGujoiDuguH1mpPhqb24n+UGNKxigifR2YuAiFwhQWF9JYV09+UREdzY2ELYWCoiL6OlpIzBqFZoZpbGoCzUtRUQG6egUPbNzcR5y0XgTeJCABQQ4KERCBay9gh1j/9LPkTJjLzPLR8rrjay8uexCBYQtIQBg2oRQgAiIgAiIgAvEnIAEh/vpUWiQCIiACIiACwxaQgDBsQilABERABERABOJPQAJC/PWptEgEREAEREAEhi0gAWHYhFKACIiACIiACMSfgASE+OtTaZEIiIAIiIAIDFtAAsKwCaUAERABERABEYg/AQkI8den0iIREAEREAERGLaABIRhE0oBIiACIiACIhB/AhIQ4q9PpUUiIAIiIAIiMGwBCQjDJpQCREAEREAERCD+BCQgxF+fSotEQAREQAREYNgCEhCGTSgFiIAIiIAIiED8CUhAiL8+lRaJgAiIgAiIwLAFJCAMm1AKEAEREAEREIH4E5CAEH99Ki0SAREQAREQgWELSEAYNqEUIAIiIAIiIALxJyABIf76VFokAiIgAiIgAsMWkIAwbEIpQAREQAREQATiT0ACQvz1qbRIBERABERABIYtIAFh2IRSgAiIgAiIgAjEn4AEhPjrU2mRCIiACIiACAxbQALCsAmlABEQAREQARGIPwEJCPHXp9IiERABERABERi2gASEYRNKASIgAiIgAiIQfwISEOKvT6VFIiACIiACIjBsAQkIwyaUAkRABERABEQg/gQkIMRfn0qLREAEREAERGDYAhIQhk0oBYiACIiACIhA/AlIQIi/PpUWiYAIiIAIiMCwBSQgDJtQChABERABERCB+BOQgBB/fSotEgEREAEREIFhC0hAGDahFCACIiACIiAC8ScgASH++lRaJAIiIAIiIALDFpCAMGxCKUAEREAEREAE4k9AAkL89am0SAREQAREQASGLSABYdiEUoAIiIAIiIAIxJ+ABIT461NpkQiIgAiIgAgMW0ACwrAJpQAREAEREAERiD8BCQjx16fSIhEQAREQAREYtoAEhGETSgEiIAIiIAIiEH8CEhDir0+lRSIgAiIgAiIwbAEJCMMmlAJEQAREQAREIP4EJCDEX59Ki0RABERABERg2AISEIZNKAWIgAiIgAiIQPwJSECIvz6VFomACIiACIjAsAUkIAybUAoQAREQAREQgfgTuOEDQkPNSZo7+tA0Nabv8iUxacJYNHXo/7/dsnf3TmbNqUBVlbdbVf5dBERgmAJ9PR2cq2skYlroupvCkjGkJ/uHWerV2tymtqaO0aUldHV2kp6egfI208KRA1VE7KGVVFUjJ7+IvOz0q1UhKUcEbmiBGz4gHDu0j9yS8ST5PDFIRVHQdf2yUSUgXDaVrCgCwxQw2LphI1PnLyHR68II9bJ79yEWLbsNt3ZjBPRIJILb7aZqzx5mzp7zticOlZW7mDNnVszFMiLsrjrAklsWDdNJNheBkSFw4weEw/spHFtOst/7mmiop4ndx5pYPH8OdacO00Y6OXRSG7BwG4MEgwPklZRTPraICwGhtaGakzUNaLqKZSpMnT2HDOc8T28+SVKSh4mTp9F67jR9YQvLNMkrGcf4koKR0YtSSxG4AQT6m46xq0FheUX5a7VpPHeWrPwSOhrPcqauBU1TsBUXM2bNZqBmF/uaIcOv0tffT3ZuPuGBPsLhEIo7iflzZ3KsagcR3IQjYXp7AuQWFRMeCBAaHCC5sJxZoxP50TNVfOTh5bF9Hj64j7HlU6k+dgAThcHBEP2BHsqmLqA0P4NdlTvJTfey5/BpCgoKyUxNpC6cyvIZRbHtKysrWbBgwWv137lzN/Pnzxv6/47DjsqdLFy4gM7meo6eroldgbBsldnz5hNt/8nGXlwqOO4kFlbMpKOplmOn62JXQB0HJk6dQbLH5FRNC9MmT4wV++Jvf8r8+z9I5Zr/xTVqAm5PMmMLkjh5th41dqVUY+rMWWjhbg4fO4MT3afiYV7FXDrqTnC6vg2XpmChMWvOXJJ87hvgaJAqxIPAjR8Q9r/CiZpWXJoW8x49cRrTJpRw6vBenJRcWmtrWXjLIhpPHaQ3YQxTi5LBtti1cydz5y9k/95dsVsMu3e+wpyKReiaQnigjQPHmqiYkMzLxwe4pWIqzdVHODOYzuLJ+eBY7Npd9YeJIR56WtogAtdYoPlEJfVOIfPKC9+wpwibN2xj4W234dEV+ppPsvecxcTkbqojuSycMZZQdwtPbjvBo6uXoGsqR/bvpmTidM4cqmL0pBmkJfkJNh3m5RqT2xfNxDF6+envdvChhxbw44sFhMP7SC6dTHF6IrbZy+69Z6iYP5vdlTuZt2A++169gqDYQX7+49/x4Ec+iM9sZ8/hFubNmfJa/bdv20pJ6Rgcx6arpZ4+J5mFc6ewa9ee2IexW1fpazlOTZeP3lNbGLfs/YxKcdPS1Ez6qGx276pi3ryh9YL9PRw6eY7p5cUXDQi7nvkR025/jCw/bN2xl4UL58e2C3Q30zXgUH9wO5OX3k96gouG43toUgoI1x1h0q23k+lV6etqAU8qSQl/OJm6xl0uxce5wI0fEC5yBSHaJ8ZAJz/+0U9ZuPoDTBqdxbkTBwhnTmJ81lB6rtq9hxmzZ7O/ajez5sxjz+7dzJs/nwsXOnfv2sW88iz21ljMmT6Ok/sqaQi7SXdH13DoC9vcunBunHe/NE8Erp5A+5k9nA5ls3DK6NcKjYRD6HYXGysbueO2C+NpkM0v7mF8vkarewwzy/KIBDp4dk8tDy2fE9v2+KEqisomU3vyCGPKp+H3urE7z7C9xmTJnIlgDfDDn23kI++99eIB4dghRk+eRpLLBUTYVbmfeQsq3hQQos8m1e1/kcH06dh1O/BPvI2S7OTX6v/yls3k5OWDFWb33mPc/+jDJLhg04b1pGflxdazHYOk9DyKMz0cOl6DLyGRlPRMCnMyqDp4lHlzZsbWi92i2H+YmVPGXDQg7HnuCWbf9TgJBNl54DiLK4ZubcQWZ5Bf/uCXjJk1g+gNVjPUj5Y5homjXBw4eobEpGQSk1IoLi7E9erzWlevZ6Wkm1VgxAaEs8cOEPFn0NXYyIJF86k/eZBQxiQmZA8FhN2VO5hdseAPVxB2VVIxf+HQQ0l2kJ27jzJ/UvprAaHu+H46EsYyvSBh6FhQlMt+EPJmPXik3SLwegFrsIUN28+y8vZFXHgmuKpyK+UzZ7Fz626W3LEcXQEz0MCWA21MzhykebgB4X1L+dGTO/noe1fGqnLoQBVlk6ZR/Q4CgmOF2F1Zycm6AR57/+pYHS8sr7/F0FV3iNq+BGaWl7IzesIx9w8nEKrqcL6xg9yCbMxIhKqdu5i0cCFH9u5n0YKhWxRGOMS+Q8eZPnksJ6sbmT4leivG4YVf/4SFD36YCwEhSQuzrfIAS2+piG0XCQ/SNxikatMG5t8dDShDFYz+b3dvHxlpKRhGhIZTB9EyxlKclyEHpghcFYEbPyAc3IPtTsLvjp4JgOb2kZ2is+9oLQvmz+PciUMM+nJJCjdxtNViYlE6kYFeBmwfs6ZNpOrVbzGcja7neEn0arQ31JBfPo8iX+drAcEK97FpcyUFpaV4ovdJVRdlpcVXBVkKEYGbReDUoT0E1QQSfR7CA12ElFRmTh3HmSNVhJQE/B6NprpzjJ+9GKepavgB4UOr2fnCevyFZSR5NI4eO8mKO1e+bUA4XLUbT3I6RcUl+D062zc8g69sEbNL//jD9fUBIXqbofKVV5g5fzFt1cdoGXDISPZhhPvJyh9Dzb6X8eaOJcGt0ni+jfm3LKDxxGE6QhrpSV76uppJzZ9AYXYyu3fvISsnFzsywJ6dVdz/wY++FhBSPA61xw/RYbhIT/QS6Goht2QK2uB5atuCZKQlMdjXT37ZROqO7UdPSsfn0uhubaK4fBbZaYk3y+Em7bzGAjd8QDAiYcIR47VbA4qq4XGpmI6Kx+3CtkyCEZv2c8cIpo4j+giC4zj4/P7YFYBIOIzb48GxbYLBQWwHNN2Nz+sG2yRiOrhfDR+2aRAMh2Pkbo8Plz703IMsIiAClyfg2BbBYAjbcWJfC/T6fLGrCRf+3omGfJcbr9uFZYSx0HG7tKHxGTFjtxJiZ9uRCLrLhWkYsf9Gv70UHa8h04ltGz3z7u8Pkpjox7YMgsFw7KpfdH7weT0Yr26nxi4ZOoTDETweD+FwOPZf04gQCkfw+RPQVIV9VXuZPmsOb/yyxYX1L7Q+estEc3vRiM4nwVg7FUXD5/Ph2CbB0ND8obvcsfkJZ2g9y3ZQNR2f1xu7ihktJ2KYsb9THAuPL4FIcAC3L2Ho6sur20Xnq+g6Xq8HxXEIhaJl2Siqjs/nxYnOf6FQ7AFITXcNrXd5XSVricDbCtzwAeFtW/DqCm98BuFyt5P1REAEbl4BIzRAbV0dfUGbWdMn37wQ0nIRuIhA3ASE6BkBmgtdXogkB7oIiMBlCkSvbAwOBnF75YrhZZLJajeRQNwEhJuoz6SpIiACIiACInDNBSQgXHNi2YEIiIAIiIAIjDwBCQgjr8+kxiIgAiIgAiJwzQUkIFxzYtmBCIiACIiACIw8AQkII6/PpMYiIAIiIAIicM0FJCBcc2LZgQiIgAiIgAiMPAEJCCOvz6TGIiACIiACInDNBSQgXHNi2YEIiIAIiIAIjDwBCQgjr8+kxiIgAiIgAiJwzQUkIFxzYtmBCIiACIiACIw8gRs6INi2TfSPLCIgAjeGgKZpQz+c9IYl+gNp0bEa/a8sIiAC776ADXJcDwAAIABJREFUqqpE/wxnuaEDQrRhMuEMp3tlWxG4ugIXCwcX9iBj9epaS2kiMByBtxqrl1vuDR8QLrchsp4IiIAIiIAIiMDVE5CAcPUspSQREAEREAERiBsBCQhx05XSEBEQAREQARG4egISEK6epZQkAiIgAiIgAnEjIAEhbrpSGiICIiACIiACV09AAsLVs5SSREAEREAERCBuBCQgxE1XSkNEQAREQARE4OoJSEC4epZSkgiIgAiIgAjEjYAEhLjpSmmICIiACIiACFw9AQkIV89SShIBERABERCBuBGQgBA3XSkNEQEREAEREIGrJyAB4epZSkkiIAIiIAIiEDcCEhDipiulISIgAiIgAiJw9QQkIFw9SylJBERABERABOJGQAJC3HSlNEQEREAEREAErp6ABISrZykliYAIiIAIiEDcCIzogHC21aKy2qBzwCHNrzCvxMXEPC1uOkcaIgLxKlDfabH2UITyPJ0l410oSry2VNolAiNXYMQGhOcORvjuliB/v9rP9CIXx5pM/um5AR6d6+V98zwy4YzcY1JqfhMIfGdzkDsmu3miMsQXV/pJ8kpCuAm6XZo4wgRGZEA42Wzxy90hvrTKT4J7aGLpDTrsqTU5WG+wotzN9CL9kl3RP+hwtNuO/fvkHI3EN6zqOA4NfVCUfHmT1okWC59PISdZxXd5m7ztYeJYDoe6HKZmqahvu/Y7X2Eg6NBiwJjLbOM734NsIQJvFujod3j2YJjzPTaW7VCYpvGBBV5cb3Hhr7PPpiEIkzJVmgI2RSkq6lUaZyOhjywbGvocRqe8daOjY3pQgXS3Qk3Apiz1nc0c/SEHS4WUV+fUq2LjwLlem6LUazOPXZU6SiGXFBiRAeHjP+3jc8v9TMofmlVePBbh354P8oU7vEwYpfMPTw/ws48nX7LRB46H+b8WWDJKZflYF+lucF63th22+dYhiy/NdcX+PjosX//v0VUvDNVomHj/E4Osnudh2Vid7FfDxoVtXr/ta9u8rsxLrWcELJZvNNj4oBf3q/u/2PZvdWy/Vb0PnzX4WRd8Y64rVsRNNN/KdHCdBVoCNo1dNhHT4b9eGrrqNzn/0gH+9dXr67O5Z12I5XkaRoqG0mXypVu8eLU/jMk3jqHXH8tvHL+vH0NvPO5fv+4bx+2F8f/GMXWp8X2h7LeaP14/p7zV/vqCDt84YPBPC6IzwVC7L7b+kWqDM7rKnTkqX9xp8J2l7ti6VsThY5sj/HClh+iMeWH7C2VdqGtDp0XQpVL26knDuXaLJ5scvjBdv+Q+X1+PZw9HKCnQmZqu/mEftsNzZyx2nYpwzy0+5qXKTHOdh9+wdjfiAkLEhOX/3sPaz6aQ7FX4/rYguqqw6USEn3wkCcOC277Vy9YvpuB1XfxgjAaE/78JFuRrJJo2lectJmZrfPekxf25CsvKXWw6YXK6x2ZcqsK0MjcvHgizolTjyZMWfZbDd1f7CTQb/LrRZs8Zk8mFOg/O0PnxrghFmRp+xyHRq5CiKzxfb5HrgVmFGl0DDuvPWJRnKjT2O0xIU1nXYvOZ8Rq/OGXi9ausyoR2Q2FdmxMLCNuORtjb6+DxqQT6bdJd0TN/lX85YjLND/nZGgFbwd9jYnkUag0FPWTzqYUenjwUoTXoEDFgZqGG6lHoPW+iuKBJ1VCCNkVpKp+Y6SLTI4N3WKNJNn6TQFvA5u+fGmBSvk5rwOYLd/hJS7j84ywcdvivvREcTWHZOJ0nKsMk6TCmSOdEk0X0QuAiv8MRTaMkZLG5G8pGu/jGbJ01e8M82WTz8Bw3z+8z0G2bhxZ4uTVb5b93hHmpzmJ6vsbcYo2NZ03OnrdZPk7jQLtNSarKnnqLWcU6jxQr/LrW5nyXTXaSSvEolcMNFvmaQ06WxtOnLHxu+M49PrqbTb59ymJyhkqhbXMkCGd7INEDM9PhcDeE+y1SfCpWokZ3r8XMFEjN0DlVb3K4z+ETkzS2tDo0tdtMylIJexRaB+F/lro5Umfyn0dNirM1ztdGSE/XcJI1lAGbNNWhdLTrtYCwMMHmmQabxGSN1l6bf7zNywyvw8MvRLg7X+EsCm2ddmzu+8QMF0fOGlSHHH54xmK0BrNG6+xts1mSCRvqbfxeBV2FAp/C2GyVJ/abfHquzrqTJq26SoXbITtPZ++pCHUh+PhCL3fnwMfXhQmFbW6f5eWxMZqcjIygeWLEBYTo5bZl3+zhd3+WTFayyvJv9eI48L4KDx9b7I19AK/6z15e+ZvU2MF8sSUaEPYoGh+foLOn2uAjmyJ8Y5mHfzhk8ndjFQKJGifPmmzqh69P0qg0Vdz9Fg/lwC/aFe7MU5iSr/PKoTD9aRq/2RomP1/ngZkuWlpMvltlMKZA5z+XuHnxqMFvu2B1gkMoS2fHgTC5pW5620w+MdvNQJfF12ocPpsHTwfgo6UaG45EWDHBxef3mrGA8ItXQpSPdXGizaYuCI8WKLx83ub3LQ73pjhkFrvZU2+SHrRYUKzzkxaHkkGbggINTYc9xwxaUfnbZW6erzFpbrR5cLzKk52wOkdhQ7XJn8z3MvFtLmGOoONaqnqDCPSFHP7sZ32xMRo04GsPJDAx9/I/JJq7LP631uHBHPjvOofciMWtGSq/bLbxJWlkmRbZjkPaaDcvvBJi1XwvRUkqs9Ng5ROD3D3NhZ2g0t1uU65ZaAUeHihU+JvNEVIiFonZLn54MMLiAo0GTWW27nDHZBdu06amBzacNbklX8FJ0qncGyKSrPGXK708uSfCnWnwmyaboxGFr83QmZijUXkywm5HY2kqvHI4wvypbr78fJiyUo1vztN54pSNN2ByqB8WTPFwot7k0+NVfnLSZGMHzPXB5EIN3adSdShEq6Lx2WUe1hwx+NpCN9/eFsKb4+Jcl8Vgq8ldE138oM5mRprKnelQ4/rDFYRCw2LqOHfsqua3j5qxKwjRE4eH10e4PQ96/TpjdYenzph8a5WP2tqhgPBsG1SoFq4cFwMRcPeZjC9yoUVsnm51eLxQ4Vw4amPzngLY2q/EQtWnSlVGZ6t8a6fB5+a6yUxTKXI7/PnGCAmGzb2LfcxPu/xweIMcwjd1NUZcQIj21rc2DDIuR6drwKZ70GHVFDfjRw3dbnjljMGWk0bsMuallpYOi2cbbdwqZPgV5mSpVDVafPmQyZem69xTpnO4zcYctKkzYHWZi+OtFhV5Ks+eMgkrCveO08FwWFtjEow45CZpTBilsq/exNEVypIUqtps5uZr1LZaBBSF+8bpbK8xmVioE+iy2NNuMyVT5WwI7itQeea0GZsYKtJgR4tNRFV4dIJOT5/N8+csSrO1WJ0agg635Wlsabcp84A/ReN8r43PdChIUTnU75BmOmSmqxxutoYuKyoKi0o0qrsd/KbNmYBDUqKKEnGIAMtK9NiZmSwicLUFBsJO7Bmh6LL+SIRA0GHpBBc9gw6lWSrFGZd+AMG2HDbXWDSFHOaP1mnpsij2KdSEoanXRtMUJvjBm6qRZtm82GhTnq8xO0Nl62mDhjCUjFJxQpCpOCjJGhOSFZ4/ZdAdgem5GtsaLZbkqfSoKoWqw8YGi4lZKm09NqZL4a4SjbWnTFSfSp4OZQUaJ89bjPFBq61Q124xoCk8PF7HDDusOW2SmqxSka6w7pxFUZaGGXFYmKtyuNNBj9i0RqAgS6MzYDM7Q+FEr8OZDjs6pTB1lIrbrdLcapKZrHKk0yYpQeXe6PhttdjRZpOaqOKN2IzN0Dg+6OCNOHQbDlPzdEoTYFOTzbQU2NRgU5KlYQzY+FNV5maoPH/CoM2A0uj+ey28HpXbRmu0d1v0mHB6APIVB2+yxskWkymjNKqaLAqiV1XqTE5329wz1Y1qwLxshQ11FkEUVuQrnBiAdNvhVMBheZlOnhs21FqMckMbCrdFr2Je7QNMyrtmAiMyIEQ1Hv+/Pr5yjz92kEe/IhU9Q+kecPj7pwf4j0cT8OjvLKkOBh1+VWfx0QnyKXnNjjYpWAQgFgy+vGYgFg4aux3+5UE/vkvcDhSwG0jAgd3nTGrDcG+Zjk++UX4Ddc61qcqIDQhnWi1+sSsce5o5eq+/P+xgmPDIXHfsfuc7iwfXBldKFQERuLjAk1VhTrZYmBZ8aZXvks8LiZ8IiMC7JzBiA8IFsugzCd2DNql+9ZLPHLx7vLJnERCBSwlEbztE339wM31lUY4GERhJAiM+IIwkbKmrCIiACIiACIwUAQkII6WnpJ4iIAIiIAIicB0FJCBcR2zZlQiIgAiIgAiMFAEJCCOlp6SeIiACIiACInAdBSQgXEds2ZUIiIAIiIAIjBQBCQgjpaekniIgAiIgAiJwHQUkIFxHbNmVCIiACIiACIwUAQkII6WnpJ4iIAIiIAIicB0FJCBcR2zZlQiIgAiIgAiMFAEJCCOlp6SeIiACIiACInAdBSQgXEds2ZUIiIAIiIAIjBQBCQgjpaekniIgAiIgAiJwHQUkIFxHbNmVCIiACIiACIwUAQkII6WnpJ4iIAIiIAIicB0FJCBcR2zZlQiIgAiIgAiMFAEJCCOlp6SeIiACIiACInAdBSQgXEds2ZUIiIAIiIAIjBSBER0QHAfCpoNlg6aCR1dQlJFCL/UUAREQAREQgRtXYMQGhL6Qw892hmjpdUj0KAyEHdISFD640EuaX1LCjXvISc1uJoGICT/fFeJ8j33RZk/J11g93YMqQ/ZmOiykrSNEYEQGBNuBL68ZoDxP47EKb4w6euVg3ZEIm45F+NeHEnDrMuOMkGNQqhnHAjXtFj/fFeYTS4bG6RuXH70S5lNLvST7ZLzG8WEgTRuhAiMyIDxZFaYv7PD4Am/szONf1g3yt3f5Y12w7nCErgGbD8y/+IR0oZ9215m06irLUuG/Ttt8eYZ+yS7s7bfpVxTyExTqu238iSp7G0zuLH3zNk2dFt8/bpLoVnh0mosi75snvn01BonpGttOmiwdo/Fsk82kVJWVo7W3PIxqWywCboVp6epbH24OPHnEYOEkF6M0ONRsUz5KxfWGqpiGw49PWXx88qXbPkKPa6n2DSJwISD8w2o/wYiDz63EbglGbw363QpfXx+8rICw65xJYZ5GvnvoID7VahHxqUxJ/uOD+kynTWTAIuDTmJ/15nHy4imD/V02heka7xuv88bR6RgO/7TL4NGJGtu6YLLLIaSC16syP+etx51twy+OGNw/1UXi6wpu6bGxHHii1uZLM3XeZvRek54LBm2+d8hk/hidiou4XNjp0XqTdrdKnhfGp15eTWu6bFJUhy2d8NCYP57Dtp0yGJWnMz7p4gHwaJ1Bj09jUfbl7eud4vxoZ5hVszyMcv9hy5o2i9/U2HyuwoXvIgWe7bYZm3bp+lhhh68eNPnqPBfYDi+ds7mj9M1z94unTWaX6aRfKvtaDpXNNl7HwUnUmJV244XkERcQos8d3Pmfvfzgg4kUpQ91SvR2Q4JHiYWFloDNo98LsOWvUt/yeYR/2RTk2U6FNbe5WPVShL+aovPgeBdbqw26UBjvBz1Jp63L5MQZg85Una/McfHVDUGUXBfhdpOSdI1V43VONJj06Sr3j9U4ds7gW3Xw3nSHTWGVu3MUchSH2qBDhwFul0K5YnOgD/77oMH7x+nUaireQZtx6SqrxukcrDMJe1QKNYejPTbpaTp3F6nsPWnQ7FO5t1ijts1i03mb28bo9Pda7O2Be8ZobK42SUlWeemwwcdu9+LpMfmTDQZfX+HmSIvFlEKdPM3hhXM2M/NUvl5l8utVnnc67mR9EbgsgQsB4bPLffztmgE+vcxLIOSw/nCEv1nl5//bGLqsgPCzqgjTJ7g432QSUFXGJ4LtUzhWa9FtOTw61Y06YPGnmyPcma9wNKwwt0BnaabC09Ums4t0ZmaqfGtHmA/OdvPfuyI8UqIR8avsOGMxepSCEnRISVP5wYYg0ya6eKLG4ZFChSWZCmuaHablatyWo/JcrcmiQo2NNRYZfoU7JrjIccFA0OaxNUFWLfAxCZtRuTrVTSYbjkbIztT4Rb3NX05xcd8EnV01Bh22woREONbrUJqocqTLYlmpizGJCmvPGvSHHeYWaDx/1mJGgUYgGjR8Krfmqqw9a8aCRvSP4oIsl0JNv8PKQo3f1JqkuRQK/Qq6X2VJrsqhGoPv1dvMyNb4eLnOQJ/N+hYHxXaYm6VQ02Nzqh9KNIe6MDzfYPHPt3ioqjcpy9WpyFbp7rd5rtpkwiiN6lYbR4UZ2Sr/vD3M+6a56YwMHRIuyyHDC72OQrLh4EpROdVs4fIqLMpSqWy1WTlO5+x5iy3VBvklbj5WprGz1uDkoMI9JRobzhpkpWl4gjbnwpCTpNLWZ7OqQOP3dRaKSuxDvzBHxxOy2d5iU5GrcrzbwcbhgbE6a0+ZPLEnzF/c4edMq8mC0S6mpCv880sh+tN1Hs5W2N1us7RAZct5izm5OlMT4P0vhvn8bDcHO2xWl2lsPGsxr0SnqdtmWb7KS2dNPrXH4Muz3NwzTuN/9xncW6yys9PhgQk6W8+YmG6F0w0W+bkqY1I1StwOLzTYLB+n09FhcaDLoTwJPrnN4ItzXORna7S3WzHDVWM0NlSbhFWVP5327gTKC4N7xAWEsAkr/r2H5/8ihYRXzybe+/0+vv94YuwyZdBwWPqNXrZ8MQXfG0+ZX221FbL5s00RujotHpvn4SsHTT5bomB6VVoHIanf5LShsHSah5M1BksSHc54NT46Qed/XglTNN7NzuMRFiVBZS9sa7WZnKLwtyu8dDcafG6fSZFH4ZMVbrafMylXHV7pcuj2qdj9Dl+e7+IrL4UYO1pn1wmTDy/1sqfaYJYPTg84vNTqMDZRYXwK5Kdp/PywxS8f8XLi1FBAWJWn8oVtEd47Xmdzg8nhJptPzHURvQ7w4jmTk602iS6Fv77Lx2hsPv50mFGJMHOCm3VnTKa6bGaPcfHDvQZ9PpVn7pKAcFmfdrLSOxa4EBCmF+rsPWfwT/clxMr4/G/6Y1f5XjhqvGVAMCwI2/DUoQjZybC1A/w9Jv0JGrPG6FQeNSl12eSWebg/T+Er28LMTYHTisozB02WlWkYNqQlqHxhtov/2B7G7YX6kMJyv013qs53X4pQUa7xoSku1hwzGI/Nmj6VabbFWY/G5woUNgwqbNkfoaBAI9unkOmBXx6x+PB0jWCKi8+PU1m7N8zGLof9AbhvlMLsaW62HTUosW20FI1/P2bxWB4kZep0DjjkGBaHe8GTrTFDddjabrNsrIt7C1X+cluEj07S2XTO5PkzNh+dqlE5CGn90RMGlZRElcOnI/TbCkumu6ltMGPPYU3OUvlhjc3iBIf0PBc13Tb/dYubLUcjfPu0xZwclRXlbmYnOjy2JgQehaI0lXI/bB9UWOK2OaloDJpObJ6o6oVEj8qXF7l59kCYzCydjUcjnOiFP13oYmuTTUrQZkWhxnerbfpMh8dGqzSrKt1tJoMBmwUzvBw7GSYpR2fjCYOSTJWJWSoHzztM8du489x8rEjhM1sNHhinca7Lxp+pUVNvEuq1SB6l81y9zeNFKhkJCutbbKxWk+nj3ewNwGKfzcl2m6BLJeRVGKs4TEqCY7bKrkNhVs7wcLLdYkahzuMTdH68K0xBmZvKI2EeLFT5wRmbExGFX65wk+VR+PuXw7wnV+GpXoX+hgiLJrv5x70Wq0pVvjpD4992m/y0zuIfJus0+dRYXdZUW8wv1Jg9Vuf4WZMBIEmDZVNcVFab1J2zeGCmi2+eslmaQeyEr/K8zW9O23x4vEowWaej06IQm6puh3ElLo41WvxgpYe3vq78jofkO9pgxAWEaOse+G6Ab74ngTHZQ3SLvt7D+s+lxAJCY7fNx3/SFwsQl1o27g+xI6wy1eNwMAAvnLdZlq1w5xQXa48Y9AdsxuZpNJgK4aDD50oVnu5V+NJMF7+qitDg09AHLe5Khw2dsK7e4s4SnU/OcnGm3uS7jQ6zNRtfrouDZyK4TAevR0XJ0Ah3WXy6ws1frA3xlTu9/O2GEP+z0ssvTpixQX24H55psFhSoJOv2BTn6Xxnh8H/POjlzGmDp9ptZmWqVDbY5KUpeDwKZ2pMPH6F7GSVsO1wstnCp6v85Z1eynSHT6wJUZqu0K0pBBWFOW6bFhNqBhX6o5c+b5eA8I5Gjax82QIXAsIXVw5dQfjIIh99IZvKsyafW+HjGy+89S2Gc20W/7DfIFuHz0zV+dcDJoN9NjNH6xTmahyrsZjitTFz3DxYpPLVaPBOVlDTNX5TaXDbJDV2JlaWpHDvWJ3v7Irw4blu/uOVMKuyFH513mFHnc2KiRp/N9/Nd3dF+FCxwheP23y+SOF/W+Bjo+CQovLizjAFRTrpKSoT/fDN3SZfmKdzylH53FiVh38V5N7ZbvaeiuD2qfhTNHqCNnenwMkIPN0CnyyCvmSd0/UmVtgm1a+Snq+T0mdhexQ6Iwp/Wq7x2ZfCTMtWiF4WfemszT8u1vlqlUWK4vBouc7WRouaFotUr8p7F3pYcyDCaK9DepLKmvMOK5McMovcVDWY/PMCN/+3I0yTpvLKWYNvP+hnog++uSnI5Hyd7x0z+Uy5xo6QykzH4oSqUd9hsTBLoToIeQkKH5jiYsvxCMf6HM51OzT2Okwp0vAnqPh6TIrTVZ5rdmLzy2fLFM7rGo31Bi1dNvmFLjbUGPzpVBfrjxrk5GgsHK3x3H4Dt+IwvszD4yUKX9wQxsGhOEenPewQCTukGzaji138+pzNJ4sVBh2Fqj4Hp9lg7mQ3zzY5FJsWmgUtKCRkaIyzbSakw+/qHE7Um9w+2c3YJDjUCX9d4eLJAxHGRk+WdodIUaFPUzhuqPz8VlfsuP6nraHY7akGl4beEuGkrXI8ojDH61CYAPWDCr+vNVmZp8auajU3mOyvs5gyWmdhica+eosD50ySUzQ+vdTN0wcNzA6ToFel26uRHrbI8UBWusYT+wyWFGkkZumYQZux2OzudmiwFNr7HZ68zysB4bJnm1dXjN7Xil6i+8Id/tjXG/91/SCfWe6L3dP80SshclNU7pzyuptOb9hBc49NYqIaS3gNvTZhQFOgJEWlpc8mhEK+D6p7HdwuKElUaRxwKExSGAw7NEYvRboUUnQYBKyIwyAKxUlK7D5rewQyXdBugG45GIAnei1QV3BMyE5UON9nU5Ck0tTvxAZgR8ghUQVLhVAoet9TIUmN3pKAtn4nlvLDIYdz/Q569PKaX6Fl0KEwRcUyHFrDDoXRevbZ0d1Eb40xKkUl+ghEa58ds2kbcMhMUvEpDnUBh9wkhY4gjH7Dfdx32h+yvghcSuD1zyCEDOe1h4dNC9w6b/8MggONARtHUyhIVGLHsqEopOpgaRAMQ/T5RselkOaOHusOjhIdtwpd/Q75KQr1vQ5ZiQrpnlfHQIISG1NZfoW6XpvoVYpEr0Je4tC/5/igaZDYffiWMLF9BYFAf3T8KDT2OYyKrtvvkJOgxOaLLBec7h26TRgYsIk4Cp3hoecsouW0Bh0GbIXs6LSkK4TDQ/NMtGwjNtYdzgUc8pNVvDj81fYIn5nhIidRoaXfoSRNpbXXxtEVfDixy/o9KHx+jpvRaSoDAw4ByyHVrdBjQIrmoLtVBiIO+YkKpulQ2+vE5stEn0K2V6Fn0MHjhvZ+SPdBwILo9Z2ICoOh6LfCVNr7bJL9ClleJeYU9crwKfzFuhCfvM3DpCQVM+IQson9iX5XJdsLBgpGZMhW0RV6gg4uHfL8SmzOK0hRGQg59BsOST6VDA90Ddr0mArFidE+s/F7FVTTQY/2ZQSy3EPlD1qA4eD3KfQaxJ73GDCj0YLYutGnz6Ini83RvrUhM0Ghuc8hN1klxQ3d0XZH2xN2aA5G502FtjCUvPqcRFu/jaIoKBpkuBVqem3yklVCYYdOwyFRixo70YsvFKeotA9GPw+gYcBhdKpKa8DG1hSip12pCUPO6R441+dQnKoSDDq0hJ3Y501nn40JeD0Kjk2s7h39Nl/fE0FNUPneUs+bnpO5nrPNiLyCEAX62tpBUnwKj871xN5/ELGc2AOKJ5ot/vn+hNhAkEUERODdFajrtPnh9hAPzLx4YF9/xODPb/OSdJGHed/dmsveRUAERmxAiD4F/cppg4MNJhELdA0m5+ncOsF1yWcPpLtFQASur0D0SkH0al/XQPT87s1LQbpK9PkEeQ/C9e0X2ZsIXI7AiA0Il9M4WUcEREAEREAERODKBCQgXJmbbCUCIiACIiACcS0gASGuu1caJwIiIAIiIAJXJiAB4crcZCsREAEREAERiGsBCQhx3b3SOBEQAREQARG4MgEJCFfmJluJgAiIgAiIQFwLSECI6+6VxomACIiACIjAlQlIQLgyN9lKBERABERABOJaQAJCXHevNE4EREAEREAErkxAAsKVuclWIiACIiACIhDXAhIQ4rp7pXEiIAIiIAIicGUCEhCuzE22EgEREAEREIG4FpCAENfdK40TAREQAREQgSsTkIBwZW6ylQiIgAiIgAjEtYAEhLjuXmmcCIiACIiACFyZgASEK3OTrURABERABEQgrgUkIMR190rjREAEREAERODKBCQgXJmbbCUCIiACIiACcS0gASGuu1caJwLvvkAg6BCxnItWxOdSSPAo734lpQYiIAJvEhjRAaGp22brqQiN3TaFaRq3TnCRl6pKN4uACNwgAp0DNv+1MYjXdfFx6XPDn93qxeuSkHCDdJlUQwReExiRAcG04Dd7w7x4LMKKcjepfoVAyGHryQjzSl08Nt+DR7/0hGOYDgYKfv3Kj4S+iEOS+/pMaiHDQdMULjHHXnkjZEsRuMYCNe0WP98V5h9W+4leSdh+xmAg7HD3NDd+t8LX1wf51FIvyb6LjyXbhq6Qg6NAmlfhLYb1FbUkWn5nxCHLq4AD/YZD2IJ0n0K0RgORP+NHAAAL1ElEQVSGQ8LbhBfHhkEbEi5zPonOVX6PgsbQ/i42j0THvK0q+KMrvcVi2TBgQbLripp/xRv1hhwSvUNtuLCYNgQiDulRy8tdnKFtkq/DVaSg4eBxKcgp5OV2Doy4gGA78G/rBynM0HhwpptvbwrGJpfuAYfPLvex9ZTBwQaTv1nlR73EcXq8OsIRReOR0rcZfZdwjA7K7x0w+NSsS4/KhjaLp7vgzydc2T5ev+ujDSapGRoF/ncw8C7/GJA1ReCaCbw+IFSeNYjeaThYb1KUrnLvDM/bBoTugM2nXokwL12BFJ3PTryS8eTwu2MmD5a73jQn9AVsHq80eWqlGyI23ztiYSowLhGKil20t1ksLnzrfQY7TX7bAY+P0/nFMYP3TXa95YfQ114I8tgtPnJdDt87YvLZmW+eRzYej9CT7OI9BZce87+qCjOtUOdMCO4tvhKXK+x22+HvNkb45HIPea/bbTT8HTcUPlF+eUlp0xmDaZkq3ztp89fzXVzeVldYZ2B/k8WYUQovnLJ5uFyPBUBZ3lpgxAWEww0mP3g5xHfen8j+OpMTzSbvr/DywtEIyV6FBWNdfO25QR6a7WFC7sUHzYHjYfaqGn8yQed3B8L86KTF3RNd7Ks1GdQVvjNH55EtEVYVquxpd+hRVJ69z0Nbs8FfvmKQW+jC1WMyYML8UhcHqiO0OQqfrHCzp9H+f+2ce3BU1R2Av/va3ZAXJBAIGxKQJJDwlBiggAoBFNHKgIAtTqVatRWlVrDWR7VVx9bHVB1rtQNSpdRStAMiVqWC5RUhBkxYCKDkAUmYkIQ8SbK793FuZ9c6wzgyxBnQkjn337177j3feex3fr9zlpQum+2tUBFSeOM6Hx8HQgS9KquOCqb2g5p2l4JBGm82wAyfIClVZ+2nJg/NisE5afFkmUNqrMr8VHj5qKAgVaH+tEs/v0FjqyBXFayrFvx0kpePyixMBU6HXRbnGRxqhp+PvtBDTQ4rSaB7BM4UhMg3ItGDyPhcPNkXHZ/niiCcanW4cZvFA7kam5pgnCZYV25zzXCDHVUOQoFH8nQ2NkK42sQ/2GDzUZux6ToxrQ4BC27K0vhTwGHdghg6mh2WbzcZ0FdjVrzLmmMOhxyNO9LgcLsg2avyt3LBbD/YvXX8QjAlUWHFUYeh6QbBJouuMIxK1ymqtOkyFF4Zr7O6Hpbk6Ny8vouCUQab91tcnWNQdNxG8ar00+DHl3v4Z4lFdaVJi09jzFCDcIfg2hR4fK9F7hAPWrtDowW5CVDY7JIcp7J0qMpz+21SkjSyPC6FDYLxAzU2lFlck6mzp0Oht+XgOjBnpMGGUosWy2XBRB83pik8uDlEnatw+yidNfstYuNU1A5Biw5CKLi2G10sPV3mEKfCkHgYkmaQFnJYU+EwK9eguNomEim5Y4TOi6U2J9pc7p1i8E6ZTX6WwV0jNZa/HSQxzeB4uUnaIJ26U4KgprAwS+PdSofmDkFvXWFUtsEvRmjc9laQSVk6bx60UTRYOtHD6/tM4hM0XijwUttg80yJRVZfDb1TEOhwWZjnZdunYeqCLr5YlZpONzpPn2gX1HSCFXYpyDI4hsIwRxCjCDbWurS6CnP8KikJLn89LPCHBeNyDCqEyrN5cr4822i+6AShrk2wbF0HLy2KI2zDmt0hlk6PiaYbJmcaUWm4bLAeHVhnu84UhF9vDTEj26Ch2WFjnctABW4drfFeI+SYNqE+Os9vNdlwWy8CB8KUhRRWVAlu8Cvcn6/zxDaTnUGFR7JUCi2F3gL6dtmc9mrsdxRWfM+gqd3h9nfDXJXv5dQph59kqrwSsCm1VWb6BH0H6nTYcHuOTuFnJh90qbgNNoP7q/iTNRpqLfwpGr/7xGLxOA8VlRZer0KDVyW3t8YVfVzKTjqsrhI8eLmXSSkyiNa9ny9514Um8FVBiKwyXReuyP5i1dwdQVj4kcVVyQqXDvewrTREQaYR7e8tsRqDwg55A1Q2NHwhCG29NCZcohNZG9Q0OzSGYGKuwZ7DFr+a4qXkmM2WNmhtceiqt7hugo8H9jksSIUHxun8vsjmtXLBsjEqY3O9/Kc0TOMJm4WTvNy6xWJelsZvxmo8XGhR7yokCZe7xun8qwHuGanzmx1h7puoszIgGKULgkk6W4tCtPo07r/Ky9ulFg01FvPzvDwUcCjop5Bw2iZ+oIHugld1qTolMB0YmG5wpNbmUo/LsCyDFz8MYyVp/PEKg1VlDqLJIn+wwWu1Lukx8LNMlXcqHT7ugOsTXIyBHub1dlm4w+axcRpFNYLsDJ3dB8IcaYVFU7zsqnaYkehS2+WyrVOhX5vDlXledtU4JAWdaMSlzFHITNLIdgUVLQ56ikHgiM0N4w3qGx2qwwoPTzLYWGoyIkNnTVGYgjSNQlNFP2nhJmsMT9WprTa5Nl3jhePw0uUGq4vDTM/QePaAIFt1qFJVDI/KlL4K04bo0ZRxot/AaLa5Z4/Ny9MMVh138ZuC2QMUNgcVAvstMobqLMk3+MtukwkJLltaFax4jeHCIVZxEYk6q3eaTB+hsyhP540im/l+uKPIYfXcGIb4LvQouHjLv+gEIYJ6d7nNewfC3DzJF7X4SDju2tEeZuR6oqLQ1CFYMi0G5SwxpM+qLB4/YNNLU/h+psbb5TYzh+jsqLJxFYV78w1K2iHddDATNP5RbPHUHB8nayz+fNiJTgzjE6GixWXuGIPyKotASOHByR5WfhymxYY52TrrDts8Os1LJDq6fHuYP8z0sb7EpPCUYMmlBq8Wm3S6sHCMh5CA6zO0qCA8cdDhsoEac/srWHEazfU2GYMMPgqEuXKUh+JDZvT9Rg7WaW20aUNhyQidu7eavDo3hn7fcj7y4u3+8s0vNIGvCkIkFegzIOZ/+3fOJQhtpwWPBmyWD9N49ZhgagK8We5wdZbOznKbyk6X52d5eaXQpDnsMnekwaYjFmPTdGI6BfuDLndO9LFhb5hbJnvpbHJ4cp9Fn1iFWzJUVn7m0KipLOgPRU0ul8QrvF/jsnS0ytpal4kJClP7KTxValOQ66Gj3eFH2SqvlzmUnHRwFIX7JxgUt8APhmqsD5gc1xVSVYXrM1R+u9MkLlljcgL8vcIhM0WDUzbHhcLMXIOmNsGsAQrP7rPJTNMxuhxqumB4okJ8X53jDQ4LB6s8VWyRm2EwTBOsrXS4aayH1jqLOqFQ6yj098G8NJWDHfBhwKS0RbCkoBc3+GHVbpPSLrh7nMHKvSb9kzVig4K84Qb76wX5sVAfcvk0BH1Of7GyLqkXxHc67G12SeijRgUhwxUkxCmsOWjTGoJFY3W2lttk+Q0WD9PY9rnFkFSdD8pMfjjGw/OFYbp8avT9OwyNxpMWkwaorK2D+8bq7Pjcojzk0mYqZKgCo4/OrqMWsQkqv8z30NouePoTk2GpGumuy6Y6wZ0TvZRWWUxOVtkThoqjNil+jQU5OpsOWoyIJRoV2FlpY2swb5CKG6/xXolF3iUaV+forCg0WTbB4LFdFs9M96LJXMNZp4GLUhAitalodFi/L8zReoGmwvQcgwMnbLYcsqKV3bwskbhvYeNLdybYhmbB3tMus7uRJ/y8zqbMUpmb/s2iAMXHLBpUjdnpqsytdadR5D3fCoGvCsKRkw5JsQop8V/073MJwrlecnulTe4gXUrxGaA2H7aoNmF+rkEfuVj42i5UcsyizdCY6v9m8+y5+mNP+/yiFYQvGyKyabEt6BI5T/3M+10UlluoKrx1Z8L/jSD0tE4j6yMJdJdAQ7vguX8Hozvev+7SVaKbi7+MKHS3XHmfJCAJXHgCF70gnIkocnyovcuNCkJqonrWFMOFxyqfIAlIAl8SiPwXQjD89TwiJ5DOdsRREpQEJIHvlkCPEoTvFqV8uiQgCUgCkoAk0HMISEHoOW0payIJSAKSgCQgCZw3AlIQzhtKWZAkIAlIApKAJNBzCEhB6DltKWsiCUgCkoAkIAmcNwJSEM4bSlmQJCAJSAKSgCTQcwhIQeg5bSlrIglIApKAJCAJnDcC/wXF7MFReJNSfAAAAABJRU5ErkJggg==;imageBorder=default;sketch=1;curveFitting=1;jiggle=2;" vertex="1" parent="1">
                    <mxGeometry x="770" y="335" width="278.34" height="220" as="geometry"/>
                </mxCell>
                <mxCell id="36" value="kubeconfig" style="rounded=1;whiteSpace=wrap;html=1;sketch=1;fontFamily=Raleway;fontSource=https%3A%2F%2Ffonts.googleapis.com%2Fcss%3Ffamily%3DRaleway;fontSize=10;" vertex="1" parent="1">
                    <mxGeometry x="50" y="690" width="100" height="40" as="geometry"/>
                </mxCell>
                <mxCell id="39" value="&lt;font style=&quot;font-size: 10px;&quot;&gt;workspaceInfo.yaml&lt;/font&gt;" style="rounded=1;whiteSpace=wrap;html=1;sketch=1;fontFamily=Raleway;fontSource=https%3A%2F%2Ffonts.googleapis.com%2Fcss%3Ffamily%3DRaleway;" vertex="1" parent="1">
                    <mxGeometry x="-63" y="690" width="100" height="40" as="geometry"/>
                </mxCell>
                <mxCell id="41" value="&lt;span style=&quot;color: rgb(240, 240, 240); font-family: Raleway; font-size: 10px; font-style: normal; font-variant-ligatures: normal; font-variant-caps: normal; font-weight: 400; letter-spacing: normal; orphans: 2; text-align: center; text-indent: 0px; text-transform: none; widows: 2; word-spacing: 0px; -webkit-text-stroke-width: 0px; text-decoration-thickness: initial; text-decoration-style: initial; text-decoration-color: initial; float: none; display: inline !important;&quot;&gt;User Provided Configuration&lt;/span&gt;" style="text;whiteSpace=wrap;html=1;fontSize=10;fontFamily=Raleway;" vertex="1" parent="1">
                    <mxGeometry x="-70" y="653" width="150" height="40" as="geometry"/>
                </mxCell>
                <mxCell id="10" value="&lt;span style=&quot;color: rgb(240, 240, 240); font-family: Raleway; font-size: 9px; font-style: normal; font-variant-ligatures: normal; font-variant-caps: normal; font-weight: 400; letter-spacing: normal; orphans: 2; text-align: center; text-indent: 0px; text-transform: none; widows: 2; word-spacing: 0px; -webkit-text-stroke-width: 0px; text-decoration-thickness: initial; text-decoration-style: initial; text-decoration-color: initial; float: none; display: inline !important;&quot;&gt;RunWhen Local Container&lt;/span&gt;" style="text;whiteSpace=wrap;html=1;fontFamily=Raleway;fontSize=9;" vertex="1" parent="1">
                    <mxGeometry x="-78" y="330" width="170" height="20" as="geometry"/>
                </mxCell>
                <mxCell id="49" value="" style="endArrow=classic;html=1;fontFamily=Raleway;fontSource=https%3A%2F%2Ffonts.googleapis.com%2Fcss%3Ffamily%3DRaleway;fontSize=10;entryX=0.5;entryY=1;entryDx=0;entryDy=0;startArrow=classic;startFill=1;dashed=1;exitX=0.5;exitY=0;exitDx=0;exitDy=0;" edge="1" parent="1" source="75" target="20">
                    <mxGeometry width="50" height="50" relative="1" as="geometry">
                        <mxPoint x="130" y="450" as="sourcePoint"/>
                        <mxPoint x="140" y="270" as="targetPoint"/>
                        <Array as="points">
                            <mxPoint x="140" y="310"/>
                            <mxPoint x="7" y="310"/>
                        </Array>
                    </mxGeometry>
                </mxCell>
                <mxCell id="52" value="" style="rounded=1;whiteSpace=wrap;html=1;sketch=1;fontFamily=Raleway;fontSource=https%3A%2F%2Ffonts.googleapis.com%2Fcss%3Ffamily%3DRaleway;" vertex="1" parent="1">
                    <mxGeometry x="395" y="443" width="245" height="90" as="geometry"/>
                </mxCell>
                <mxCell id="50" value="mkdocs" style="rounded=1;whiteSpace=wrap;html=1;sketch=1;fontFamily=Raleway;fontSource=https%3A%2F%2Ffonts.googleapis.com%2Fcss%3Ffamily%3DRaleway;fontSize=10;" vertex="1" parent="1">
                    <mxGeometry x="530" y="470" width="100" height="40" as="geometry"/>
                </mxCell>
                <mxCell id="51" value="markdown documentation" style="rounded=1;whiteSpace=wrap;html=1;sketch=1;fontFamily=Raleway;fontSource=https%3A%2F%2Ffonts.googleapis.com%2Fcss%3Ffamily%3DRaleway;fontSize=10;" vertex="1" parent="1">
                    <mxGeometry x="405" y="470" width="100" height="40" as="geometry"/>
                </mxCell>
                <mxCell id="53" value="&lt;span style=&quot;color: rgb(240, 240, 240); font-family: Raleway; font-size: 10px; font-style: normal; font-variant-ligatures: normal; font-variant-caps: normal; font-weight: 400; letter-spacing: normal; orphans: 2; text-align: center; text-indent: 0px; text-transform: none; widows: 2; word-spacing: 0px; -webkit-text-stroke-width: 0px; text-decoration-thickness: initial; text-decoration-style: initial; text-decoration-color: initial; float: none; display: inline !important;&quot;&gt;Rendered Content&lt;/span&gt;" style="text;whiteSpace=wrap;html=1;fontSize=10;fontFamily=Raleway;" vertex="1" parent="1">
                    <mxGeometry x="405" y="443" width="150" height="40" as="geometry"/>
                </mxCell>
                <mxCell id="56" value="" style="rounded=1;whiteSpace=wrap;html=1;sketch=1;fontFamily=Raleway;fontSource=https%3A%2F%2Ffonts.googleapis.com%2Fcss%3Ffamily%3DRaleway;" vertex="1" parent="1">
                    <mxGeometry x="-68" y="445" width="138" height="115" as="geometry"/>
                </mxCell>
                <mxCell id="57" value="&lt;font style=&quot;font-size: 10px;&quot;&gt;Generation Rules&lt;/font&gt;" style="rounded=1;whiteSpace=wrap;html=1;sketch=1;fontFamily=Raleway;fontSource=https%3A%2F%2Ffonts.googleapis.com%2Fcss%3Ffamily%3DRaleway;" vertex="1" parent="1">
                    <mxGeometry x="-53" y="470" width="100" height="40" as="geometry"/>
                </mxCell>
                <mxCell id="58" value="&lt;span style=&quot;font-size: 10px;&quot;&gt;Customization Rules&lt;/span&gt;" style="rounded=1;whiteSpace=wrap;html=1;sketch=1;fontFamily=Raleway;fontSource=https%3A%2F%2Ffonts.googleapis.com%2Fcss%3Ffamily%3DRaleway;" vertex="1" parent="1">
                    <mxGeometry x="-52" y="515" width="100" height="40" as="geometry"/>
                </mxCell>
                <mxCell id="59" value="&lt;span style=&quot;color: rgb(240, 240, 240); font-family: Raleway; font-size: 10px; font-style: normal; font-variant-ligatures: normal; font-variant-caps: normal; font-weight: 400; letter-spacing: normal; orphans: 2; text-align: center; text-indent: 0px; text-transform: none; widows: 2; word-spacing: 0px; -webkit-text-stroke-width: 0px; text-decoration-thickness: initial; text-decoration-style: initial; text-decoration-color: initial; float: none; display: inline !important;&quot;&gt;Matching Rules&lt;/span&gt;" style="text;whiteSpace=wrap;html=1;fontSize=10;fontFamily=Raleway;" vertex="1" parent="1">
                    <mxGeometry x="-58" y="443" width="150" height="40" as="geometry"/>
                </mxCell>
                <mxCell id="62" value="3" style="ellipse;whiteSpace=wrap;html=1;rounded=1;shadow=0;sketch=0;fontFamily=Helvetica;fontSize=15;fillColor=#647687;fontColor=#ffffff;strokeColor=#314354;" vertex="1" parent="1">
                    <mxGeometry x="-90" y="450" width="30" height="30" as="geometry"/>
                </mxCell>
                <mxCell id="63" value="1" style="ellipse;whiteSpace=wrap;html=1;rounded=1;shadow=0;sketch=0;fontFamily=Helvetica;fontSize=15;fillColor=#647687;fontColor=#ffffff;strokeColor=#314354;" vertex="1" parent="1">
                    <mxGeometry x="-100" y="650" width="30" height="30" as="geometry"/>
                </mxCell>
                <mxCell id="64" value="2" style="ellipse;whiteSpace=wrap;html=1;rounded=1;shadow=0;sketch=0;fontFamily=Helvetica;fontSize=15;fillColor=#647687;fontColor=#ffffff;strokeColor=#314354;" vertex="1" parent="1">
                    <mxGeometry x="-30" y="200" width="30" height="30" as="geometry"/>
                </mxCell>
                <mxCell id="65" value="" style="rounded=1;whiteSpace=wrap;html=1;sketch=1;fontFamily=Raleway;fontSource=https%3A%2F%2Ffonts.googleapis.com%2Fcss%3Ffamily%3DRaleway;fontSize=10;" vertex="1" parent="1">
                    <mxGeometry x="180" y="653" width="130" height="97" as="geometry"/>
                </mxCell>
                <mxCell id="67" value="&lt;span style=&quot;color: rgb(240, 240, 240); font-family: Raleway; font-size: 9px; font-style: normal; font-variant-ligatures: normal; font-variant-caps: normal; font-weight: 400; letter-spacing: normal; orphans: 2; text-align: center; text-indent: 0px; text-transform: none; widows: 2; word-spacing: 0px; -webkit-text-stroke-width: 0px; text-decoration-thickness: initial; text-decoration-style: initial; text-decoration-color: initial; float: none; display: inline !important;&quot;&gt;Shared Volume / Folder&amp;nbsp;&lt;/span&gt;" style="text;whiteSpace=wrap;html=1;fontFamily=Raleway;fontSize=9;" vertex="1" parent="1">
                    <mxGeometry x="-80" y="600" width="170" height="20" as="geometry"/>
                </mxCell>
                <mxCell id="70" value="4" style="ellipse;whiteSpace=wrap;html=1;rounded=1;shadow=0;sketch=0;fontFamily=Helvetica;fontSize=15;fillColor=#647687;fontColor=#ffffff;strokeColor=#314354;" vertex="1" parent="1">
                    <mxGeometry x="250" y="610" width="30" height="30" as="geometry"/>
                </mxCell>
                <mxCell id="71" value="" style="endArrow=classic;html=1;dashed=1;fontFamily=Helvetica;fontSize=15;exitX=1;exitY=0.5;exitDx=0;exitDy=0;entryX=0;entryY=0.5;entryDx=0;entryDy=0;" edge="1" parent="1" source="65" target="8">
                    <mxGeometry width="50" height="50" relative="1" as="geometry">
                        <mxPoint x="350" y="720" as="sourcePoint"/>
                        <mxPoint x="400" y="670" as="targetPoint"/>
                        <Array as="points">
                            <mxPoint x="360" y="702"/>
                            <mxPoint x="360" y="400"/>
                        </Array>
                    </mxGeometry>
                </mxCell>
                <mxCell id="72" value="5" style="ellipse;whiteSpace=wrap;html=1;rounded=1;shadow=0;sketch=0;fontFamily=Helvetica;fontSize=15;fillColor=#647687;fontColor=#ffffff;strokeColor=#314354;" vertex="1" parent="1">
                    <mxGeometry x="340" y="380" width="30" height="30" as="geometry"/>
                </mxCell>
                <mxCell id="76" value="" style="rounded=1;whiteSpace=wrap;html=1;sketch=1;fontFamily=Raleway;fontSource=https%3A%2F%2Ffonts.googleapis.com%2Fcss%3Ffamily%3DRaleway;" vertex="1" parent="1">
                    <mxGeometry x="80" y="445" width="120" height="115" as="geometry"/>
                </mxCell>
                <mxCell id="75" value="&lt;span style=&quot;color: rgb(240, 240, 240); font-family: Raleway; font-size: 10px; font-style: normal; font-variant-ligatures: normal; font-variant-caps: normal; font-weight: 400; letter-spacing: normal; orphans: 2; text-align: center; text-indent: 0px; text-transform: none; widows: 2; word-spacing: 0px; -webkit-text-stroke-width: 0px; text-decoration-thickness: initial; text-decoration-style: initial; text-decoration-color: initial; float: none; display: inline !important;&quot;&gt;Discovered Resources&lt;/span&gt;" style="text;whiteSpace=wrap;html=1;fontSize=10;fontFamily=Raleway;" vertex="1" parent="1">
                    <mxGeometry x="85" y="443" width="110" height="20" as="geometry"/>
                </mxCell>
                <mxCell id="77" value="&lt;span style=&quot;color: rgb(240, 240, 240); font-family: Raleway; font-size: 10px; font-style: normal; font-variant-ligatures: normal; font-variant-caps: normal; font-weight: 400; letter-spacing: normal; orphans: 2; text-align: center; text-indent: 0px; text-transform: none; widows: 2; word-spacing: 0px; -webkit-text-stroke-width: 0px; text-decoration-thickness: initial; text-decoration-style: initial; text-decoration-color: initial; float: none; display: inline !important;&quot;&gt;Output&lt;/span&gt;" style="text;whiteSpace=wrap;html=1;fontSize=10;fontFamily=Raleway;" vertex="1" parent="1">
                    <mxGeometry x="185" y="655" width="70" height="40" as="geometry"/>
                </mxCell>
                <mxCell id="81" value="" style="shape=cylinder3;whiteSpace=wrap;html=1;boundedLbl=1;backgroundOutline=1;size=15;rounded=1;shadow=0;sketch=1;fontFamily=Helvetica;fontSize=15;fillColor=none;curveFitting=1;jiggle=2;" vertex="1" parent="1">
                    <mxGeometry x="119" y="483" width="42" height="60" as="geometry"/>
                </mxCell>
                <mxCell id="83" value="" style="endArrow=classic;html=1;dashed=1;fontFamily=Helvetica;fontSize=15;exitX=0.5;exitY=1;exitDx=0;exitDy=0;entryX=0.5;entryY=0;entryDx=0;entryDy=0;" edge="1" parent="1" source="56" target="65">
                    <mxGeometry width="50" height="50" relative="1" as="geometry">
                        <mxPoint x="350" y="470" as="sourcePoint"/>
                        <mxPoint x="400" y="420" as="targetPoint"/>
                        <Array as="points">
                            <mxPoint y="590"/>
                            <mxPoint x="245" y="590"/>
                        </Array>
                    </mxGeometry>
                </mxCell>
                <mxCell id="86" value="Configuration Files" style="rounded=1;whiteSpace=wrap;html=1;sketch=1;fontFamily=Raleway;fontSource=https%3A%2F%2Ffonts.googleapis.com%2Fcss%3Ffamily%3DRaleway;fontSize=10;" vertex="1" parent="1">
                    <mxGeometry x="195" y="685" width="100" height="20" as="geometry"/>
                </mxCell>
                <mxCell id="87" value="Repository References" style="rounded=1;whiteSpace=wrap;html=1;sketch=1;fontFamily=Raleway;fontSource=https%3A%2F%2Ffonts.googleapis.com%2Fcss%3Ffamily%3DRaleway;fontSize=10;" vertex="1" parent="1">
                    <mxGeometry x="195" y="710" width="100" height="30" as="geometry"/>
                </mxCell>
                <mxCell id="88" value="" style="endArrow=none;html=1;dashed=1;fontFamily=Helvetica;fontSize=15;exitX=0.25;exitY=0;exitDx=0;exitDy=0;entryX=0.5;entryY=1;entryDx=0;entryDy=0;startArrow=classic;startFill=1;endFill=0;" edge="1" parent="1" source="53" target="7">
                    <mxGeometry width="50" height="50" relative="1" as="geometry">
                        <mxPoint x="400" y="320" as="sourcePoint"/>
                        <mxPoint x="450" y="270" as="targetPoint"/>
                        <Array as="points">
                            <mxPoint x="443" y="210"/>
                            <mxPoint x="518" y="210"/>
                            <mxPoint x="575" y="210"/>
                        </Array>
                    </mxGeometry>
                </mxCell>
                <mxCell id="89" value="6" style="ellipse;whiteSpace=wrap;html=1;rounded=1;shadow=0;sketch=0;fontFamily=Helvetica;fontSize=15;fillColor=#647687;fontColor=#ffffff;strokeColor=#314354;" vertex="1" parent="1">
                    <mxGeometry x="560" y="200" width="30" height="30" as="geometry"/>
                </mxCell>
                <mxCell id="90" value="7" style="ellipse;whiteSpace=wrap;html=1;rounded=1;shadow=0;sketch=0;fontFamily=Helvetica;fontSize=15;fillColor=#647687;fontColor=#ffffff;strokeColor=#314354;" vertex="1" parent="1">
                    <mxGeometry x="710" y="410" width="30" height="30" as="geometry"/>
                </mxCell>
                <mxCell id="91" value="" style="endArrow=classic;html=1;dashed=1;fontFamily=Helvetica;fontSize=15;exitX=1;exitY=0.5;exitDx=0;exitDy=0;entryX=0;entryY=0.5;entryDx=0;entryDy=0;" edge="1" parent="1" source="52" target="34">
                    <mxGeometry width="50" height="50" relative="1" as="geometry">
                        <mxPoint x="700" y="590" as="sourcePoint"/>
                        <mxPoint x="750" y="540" as="targetPoint"/>
                        <Array as="points">
                            <mxPoint x="700" y="488"/>
                            <mxPoint x="700" y="445"/>
                        </Array>
                    </mxGeometry>
                </mxCell>
                <mxCell id="92" value="" style="outlineConnect=0;dashed=0;verticalLabelPosition=bottom;verticalAlign=top;align=center;html=1;shape=mxgraph.aws3.user;fillColor=#D2D3D3;gradientColor=none;rounded=1;shadow=0;fontFamily=Helvetica;fontSize=15;" vertex="1" parent="1">
                    <mxGeometry x="1080" y="407" width="45" height="63" as="geometry"/>
                </mxCell>
                <mxCell id="94" value="http://localhost:8081" style="text;html=1;strokeColor=none;fillColor=none;align=center;verticalAlign=middle;whiteSpace=wrap;rounded=0;shadow=0;sketch=0;fontFamily=Raleway;fontSize=15;fontSource=https%3A%2F%2Ffonts.googleapis.com%2Fcss%3Ffamily%3DRaleway;" vertex="1" parent="1">
                    <mxGeometry x="879.17" y="560" width="60" height="30" as="geometry"/>
                </mxCell>
            </root>
        </mxGraphModel>
    </diagram>
</mxfile>